{"glyphs":{"0":{"ha":758,"x_min":0,"x_max":0,"o":"m 693 460 b 674 732 701 550 697 644 b 407 990 638 867 558 990 b 90 679 231 990 131 832 b 67 386 65 585 57 483 b 371 0 81 214 169 0 b 693 460 590 0 679 281 z m 256 147 b 160 436 188 225 164 336 b 194 688 157 521 167 607 b 404 894 226 782 292 894 b 600 551 561 894 597 671 b 540 240 601 444 583 336 b 371 97 508 171 454 97 b 256 147 326 97 288 115 z "},"1":{"ha":504,"x_min":0,"x_max":0,"o":"m 421 18 b 421 53 425 29 424 42 b 397 315 406 139 397 228 b 429 832 396 488 413 660 b 432 924 432 863 435 893 b 376 985 429 956 407 985 b 339 974 364 985 350 979 b 250 900 325 965 263 910 b 68 796 194 857 135 814 b 32 778 56 792 40 788 b 61 699 8 749 24 706 b 71 697 64 699 68 697 b 124 713 89 697 106 707 b 333 842 200 740 271 789 b 301 429 319 704 307 567 b 325 36 297 297 303 165 b 375 -14 331 10 344 -14 b 421 18 394 -14 414 -1 z "},"2":{"ha":739,"x_min":0,"x_max":0,"o":"m 356 14 b 503 19 404 18 454 19 b 638 7 547 18 593 17 b 669 4 647 4 658 1 b 707 61 694 11 714 36 b 675 97 703 78 690 93 b 522 115 625 111 574 115 b 397 114 481 117 439 117 b 190 94 328 110 260 101 b 443 426 272 207 363 314 b 613 776 508 519 603 660 b 603 871 617 807 614 842 b 388 1003 574 957 472 1003 b 65 733 240 1003 78 888 b 74 706 64 724 68 714 b 113 685 83 692 99 685 b 161 726 136 685 158 700 b 382 907 179 828 282 907 b 515 826 439 907 506 879 b 510 749 521 800 517 774 b 438 593 493 693 467 642 b 78 103 332 419 193 271 b 47 49 71 94 49 60 b 96 -8 42 18 65 -8 b 356 14 183 -7 269 6 z "},"3":{"ha":724,"x_min":0,"x_max":0,"o":"m 669 313 b 632 460 672 363 661 418 b 465 579 593 515 531 558 b 561 697 506 610 542 650 b 583 844 581 743 592 796 b 388 1006 569 943 485 1006 b 107 814 282 1006 136 921 b 156 750 99 781 124 750 b 200 783 175 750 194 764 b 388 911 219 849 318 911 b 471 871 419 911 451 897 b 488 794 486 849 492 821 b 417 664 482 742 457 697 b 288 599 394 647 317 601 b 165 553 253 596 179 585 b 210 479 149 519 172 479 b 307 503 225 479 292 499 b 346 503 313 504 339 503 b 568 368 429 499 544 458 b 569 297 574 344 574 321 b 326 92 547 182 446 92 b 144 190 251 92 186 129 b 111 222 135 203 125 218 b 94 225 106 225 100 225 b 46 176 68 225 43 204 b 83 110 49 150 68 129 b 324 -6 143 40 232 -6 b 669 313 503 -6 656 135 z "},"4":{"ha":724,"x_min":0,"x_max":0,"o":"m 569 65 b 551 269 563 133 556 201 b 644 282 582 275 613 279 b 675 364 683 286 701 336 b 638 379 665 372 651 381 b 544 367 607 376 575 372 b 563 947 536 561 540 756 b 546 996 565 964 560 986 b 515 1006 536 1003 525 1006 b 467 964 492 1006 469 990 b 449 354 443 763 439 558 b 247 332 381 347 315 332 b 144 353 221 332 158 335 b 147 414 133 365 143 399 b 339 769 182 526 269 675 b 361 801 346 781 357 789 b 315 867 372 833 347 867 b 283 854 304 867 292 863 b 242 800 267 838 254 819 b 42 375 172 700 53 501 b 86 275 39 338 57 297 b 242 235 129 240 188 235 b 454 257 313 235 383 249 b 474 49 460 188 467 118 b 521 7 476 26 499 7 b 569 65 549 7 574 33 z "},"5":{"ha":692,"x_min":0,"x_max":0,"o":"m 560 156 b 629 447 614 239 636 347 b 350 756 617 614 529 756 b 228 733 307 756 267 747 b 258 910 240 792 249 850 b 411 896 308 900 360 896 b 538 904 453 896 496 899 b 567 910 542 904 563 910 b 571 1006 624 915 626 996 b 560 1007 567 1007 564 1007 b 508 997 543 1007 525 1000 b 413 993 476 994 444 993 b 260 1008 361 993 310 997 b 232 1011 250 1011 242 1013 b 186 985 221 1010 193 994 b 164 932 174 971 167 951 b 107 650 147 838 133 743 b 96 586 101 629 92 607 b 144 544 101 558 122 544 b 190 578 164 544 182 556 b 350 658 210 635 296 658 b 506 556 422 658 475 624 b 517 299 540 476 542 381 b 308 108 490 200 419 108 b 149 224 231 108 175 154 b 99 261 140 246 119 261 b 69 249 89 261 78 257 b 54 201 58 236 50 218 b 308 13 86 82 194 13 b 560 156 413 13 504 71 z "},"6":{"ha":692,"x_min":0,"x_max":0,"o":"m 626 260 b 607 522 646 346 642 442 b 389 679 567 617 493 679 b 215 624 328 679 264 658 b 368 857 249 711 296 799 b 431 894 386 872 407 888 b 450 896 436 897 443 896 b 489 972 489 896 511 940 b 439 993 476 990 458 993 b 206 819 351 993 253 892 b 86 540 150 735 111 638 b 61 278 65 456 53 365 b 339 3 78 113 169 3 b 626 260 494 3 592 117 z m 174 213 b 157 379 156 265 153 324 b 160 386 157 382 158 383 b 389 582 189 488 276 582 b 531 446 467 582 514 515 b 508 215 549 371 542 286 b 336 99 474 143 418 99 b 174 213 257 99 199 136 z "},"7":{"ha":617,"x_min":0,"x_max":0,"o":"m 228 44 b 322 388 253 161 285 275 b 440 404 343 389 422 393 b 444 486 472 422 474 465 b 415 494 436 492 425 496 b 357 488 408 494 364 488 b 579 915 413 638 479 789 b 588 965 590 928 594 950 b 538 1006 578 988 564 1006 b 521 1001 532 1006 526 1004 b 310 957 456 972 382 957 b 114 997 246 957 171 968 b 79 1004 104 1003 90 1007 b 65 914 35 992 25 935 b 307 860 139 876 224 860 b 431 871 349 860 390 864 b 253 485 356 750 300 618 b 168 486 224 485 196 485 b 135 485 157 486 146 488 b 144 390 88 467 94 396 b 219 388 169 388 194 388 b 133 67 186 282 157 175 b 138 25 129 53 129 38 b 179 0 147 8 163 0 b 228 44 208 0 221 19 z "},"8":{"ha":653,"x_min":0,"x_max":0,"o":"m 468 26 b 569 349 569 94 614 236 b 428 514 543 415 485 469 b 571 685 489 556 547 614 b 564 854 588 738 585 801 b 342 1003 526 944 440 1003 b 147 864 254 1003 174 950 b 151 663 125 801 126 725 b 240 539 171 615 204 574 b 61 268 153 476 82 375 b 72 128 51 222 54 171 b 321 -12 110 28 222 -12 b 468 26 376 -12 429 0 z m 247 686 b 242 839 225 732 222 792 b 344 906 258 885 297 906 b 450 664 465 906 526 761 b 344 578 422 628 385 600 b 247 686 307 608 269 643 z m 157 181 b 163 279 149 213 153 247 b 310 468 186 356 242 426 b 331 465 313 469 328 467 b 458 351 376 431 425 397 b 489 268 476 326 488 297 b 439 126 492 218 474 163 b 322 85 407 94 365 85 b 157 181 256 85 172 107 z "},"9":{"ha":690,"x_min":0,"x_max":0,"o":"m 486 178 b 606 456 542 263 579 358 b 631 718 626 542 639 631 b 353 993 614 883 522 993 b 65 736 197 993 100 879 b 85 474 46 650 50 554 b 303 317 125 379 199 317 b 476 372 364 317 428 338 b 324 139 443 285 396 197 b 261 101 304 124 285 108 b 242 100 256 99 249 100 b 203 24 203 100 181 57 b 253 3 215 6 233 3 b 486 178 340 3 439 104 z m 161 550 b 182 781 143 625 150 710 b 356 897 218 853 272 897 b 518 783 435 897 493 860 b 535 617 536 731 539 672 b 532 610 535 614 532 613 b 303 415 503 506 415 415 b 161 550 224 415 178 479 z "},"\u0000":{"ha":0,"x_min":0,"x_max":0,"o":""},"\r":{"ha":0,"x_min":0,"x_max":0,"o":""}," ":{"ha":347,"x_min":0,"x_max":0,"o":""},"\n":{"ha":0,"x_min":0,"x_max":0,"o":""},"!":{"ha":257,"x_min":0,"x_max":0,"o":"m 167 304 b 172 524 165 332 171 496 b 189 917 176 654 188 786 b 142 967 190 950 165 967 b 92 917 117 967 93 950 b 72 471 90 768 76 619 b 71 363 72 435 72 399 b 74 285 71 349 67 297 b 119 254 83 264 101 254 b 167 304 144 254 168 272 z m 172 51 b 126 115 182 88 156 115 b 89 99 113 115 100 110 b 74 53 78 88 69 69 b 122 13 78 28 100 13 b 172 51 142 13 167 32 z "},"\"":{"ha":410,"x_min":0,"x_max":0,"o":"m 367 758 b 364 914 363 810 358 863 b 361 969 365 932 371 953 b 319 993 351 986 335 993 b 274 960 299 993 279 982 b 265 881 267 935 265 907 b 271 750 264 836 265 793 b 319 708 272 728 296 708 b 367 758 346 711 369 732 z m 136 714 b 144 743 142 722 146 732 b 147 933 139 806 144 869 b 135 969 149 946 144 961 b 100 985 125 981 111 985 b 50 938 75 985 53 967 b 44 782 47 915 43 803 b 51 724 46 772 47 732 b 97 693 60 704 78 693 b 136 714 111 693 126 700 z "},"‟":{"ha":410,"x_min":0,"x_max":0,"o":"m 367 758 b 364 914 363 810 358 863 b 361 969 365 932 371 953 b 319 993 351 986 335 993 b 274 960 299 993 279 982 b 265 881 267 935 265 907 b 271 750 264 836 265 793 b 319 708 272 728 296 708 b 367 758 346 711 369 732 z m 136 714 b 144 743 142 722 146 732 b 147 933 139 806 144 869 b 135 969 149 946 144 961 b 100 985 125 981 111 985 b 50 938 75 985 53 967 b 44 782 47 915 43 803 b 51 724 46 772 47 732 b 97 693 60 704 78 693 b 136 714 111 693 126 700 z "},"#":{"ha":796,"x_min":0,"x_max":0,"o":"m 465 26 b 515 263 488 104 500 183 b 660 274 563 265 611 269 b 688 354 696 278 714 328 b 650 371 678 364 664 371 b 533 361 611 367 572 364 b 569 546 544 422 556 485 b 671 543 585 546 632 543 b 722 547 694 543 714 543 b 733 632 758 560 765 610 b 704 640 725 638 714 642 b 590 643 667 638 628 642 b 656 863 608 717 628 790 b 610 928 671 900 640 928 b 564 894 592 928 572 918 b 490 642 533 813 511 728 b 318 635 433 639 376 636 b 388 872 338 715 358 796 b 342 939 403 911 372 939 b 296 906 324 939 304 929 b 218 632 263 817 239 724 b 139 626 192 631 165 626 b 115 631 132 628 124 631 b 100 536 61 631 49 556 b 143 529 114 531 128 529 b 197 533 161 529 179 532 b 161 347 185 471 174 410 b 89 350 150 347 100 353 b 63 269 53 340 36 296 b 144 251 82 250 117 251 b 108 79 133 193 122 135 b 110 28 104 63 101 43 b 151 4 119 11 136 4 b 197 38 172 4 192 15 b 243 250 217 107 229 179 b 415 256 300 251 357 253 b 376 68 403 193 392 131 b 378 18 372 51 369 32 b 421 -7 388 1 404 -7 b 465 26 440 -7 460 4 z m 297 538 b 469 543 354 539 413 540 b 433 354 457 481 444 418 b 261 347 375 351 318 349 b 297 538 272 411 285 474 z "},"$":{"ha":660,"x_min":0,"x_max":0,"o":"m 390 -149 b 403 -114 399 -139 404 -126 b 393 11 400 -72 394 -31 b 568 118 469 14 529 53 b 596 268 593 163 601 218 b 510 454 588 336 556 404 b 379 567 471 497 424 531 b 397 903 388 679 392 792 b 493 771 458 892 485 825 b 540 729 496 744 518 729 b 579 749 556 729 569 735 b 551 899 604 783 572 861 b 407 1000 521 953 467 990 b 415 1069 407 1010 415 1061 b 367 1125 418 1106 393 1125 b 319 1089 347 1125 328 1114 b 308 994 315 1075 310 1007 b 126 765 210 963 126 872 b 279 524 126 661 206 586 b 276 268 274 439 272 353 b 288 125 279 221 285 174 b 119 247 224 151 169 199 b 89 260 111 256 100 260 b 42 226 68 260 49 247 b 51 179 38 211 40 190 b 294 21 119 111 201 46 b 307 -124 296 1 303 -104 b 354 -162 311 -149 332 -162 b 390 -149 367 -162 379 -158 z m 231 726 b 233 814 219 757 221 783 b 300 885 247 843 272 868 b 288 646 296 806 293 726 b 231 726 265 669 242 696 z m 375 251 b 372 447 371 317 371 382 b 500 251 439 394 490 343 b 451 129 504 207 488 154 b 386 108 432 115 410 108 b 375 251 383 156 378 204 z "},"%":{"ha":828,"x_min":0,"x_max":0,"o":"m 239 526 b 381 844 347 567 396 729 b 240 999 369 918 324 999 b 196 990 225 999 211 996 b 54 674 88 951 38 788 b 196 519 65 599 111 519 b 239 526 210 519 225 521 z m 224 -4 b 407 378 269 129 338 256 b 722 917 510 560 622 735 b 681 990 740 951 718 990 b 638 965 663 990 646 981 b 322 426 538 783 425 607 b 133 29 250 299 181 168 b 178 -36 121 -6 146 -36 b 224 -4 197 -36 217 -24 z m 151 686 b 185 856 142 743 154 807 b 233 900 196 875 213 894 b 276 860 254 907 269 881 b 281 742 290 822 289 781 b 194 617 274 707 240 617 b 151 686 169 617 154 667 z m 764 183 b 760 358 779 240 779 304 b 632 458 738 414 694 458 b 561 442 608 460 583 453 b 421 194 476 397 429 285 b 443 63 418 150 425 103 b 565 -21 467 14 511 -21 b 764 183 671 -21 740 93 z m 521 139 b 568 322 510 200 529 272 b 626 361 583 340 603 360 b 660 342 639 363 653 353 b 678 267 672 319 678 292 b 575 78 676 200 639 96 b 565 76 572 76 568 76 b 521 139 540 76 526 110 z "},"&":{"ha":808,"x_min":0,"x_max":0,"o":"m 529 128 b 679 24 549 114 658 36 b 735 7 696 15 715 7 b 768 92 779 7 804 63 b 731 107 757 100 743 101 b 585 207 707 118 606 193 b 665 506 638 296 667 403 b 617 554 665 536 640 554 b 572 522 599 554 581 544 b 565 439 568 511 567 450 b 507 267 556 379 536 319 b 324 461 438 322 371 385 b 519 618 390 513 461 558 b 597 764 557 658 588 710 b 583 910 606 813 603 865 b 419 1029 553 978 497 1029 b 164 793 288 1029 190 915 b 200 486 142 693 157 579 b 58 289 139 432 79 367 b 68 135 46 239 46 182 b 294 6 107 50 201 6 b 529 128 393 6 467 54 z m 265 793 b 421 932 286 861 340 932 b 486 888 447 932 472 910 b 486 738 513 844 510 782 b 393 635 465 697 429 664 b 279 549 356 604 317 578 b 265 793 251 625 239 717 z m 156 176 b 157 278 143 207 144 246 b 249 399 175 325 211 364 b 451 186 303 318 375 249 b 294 103 408 139 361 103 b 156 176 243 103 178 126 z "},"'":{"ha":196,"x_min":0,"x_max":0,"o":"m 143 751 b 154 935 138 813 144 874 b 107 993 160 967 136 993 b 61 961 86 993 68 981 b 43 815 54 939 44 838 b 53 725 43 797 43 740 b 94 701 61 708 78 701 b 143 751 122 701 143 724 z "},"‛":{"ha":196,"x_min":0,"x_max":0,"o":"m 143 751 b 154 935 138 813 144 874 b 107 993 160 967 136 993 b 61 961 86 993 68 981 b 43 815 54 939 44 838 b 53 725 43 797 43 740 b 94 701 61 708 78 701 b 143 751 122 701 143 724 z "},"(":{"ha":460,"x_min":0,"x_max":0,"o":"m 472 -100 b 443 -75 467 -89 456 -79 b 201 181 324 -44 239 69 b 192 635 150 325 146 489 b 444 938 231 761 313 893 b 464 1015 476 947 488 992 b 428 1032 454 1025 440 1032 b 313 978 397 1032 338 994 b 63 431 146 863 63 625 b 171 21 63 289 94 140 b 347 -142 215 -46 274 -108 b 426 -169 364 -150 410 -169 b 472 -100 464 -169 488 -135 z "},")":{"ha":460,"x_min":0,"x_max":0,"o":"m 64 -162 b 331 99 188 -124 278 -17 b 389 544 392 236 413 396 b 89 1013 358 729 268 929 b 31 1032 79 1017 42 1032 b 18 936 -25 1026 -35 954 b 208 769 99 910 164 842 b 300 431 271 669 300 547 b 229 111 301 322 281 208 b 22 -74 182 24 118 -43 b 24 -169 -29 -90 -29 -160 b 64 -162 38 -172 51 -167 z "},"*":{"ha":372,"x_min":0,"x_max":0,"o":"m 206 683 b 207 801 206 697 207 786 b 285 743 218 792 271 749 b 301 739 290 740 296 738 b 303 781 325 743 326 776 b 253 818 292 783 261 811 b 306 822 271 819 288 822 b 322 858 326 819 339 844 b 297 864 318 863 308 864 b 250 860 279 864 260 861 b 314 913 261 869 299 908 b 307 953 342 918 335 957 b 264 929 290 951 276 940 b 211 881 246 913 228 897 b 217 960 213 907 214 933 b 218 972 217 964 218 968 b 199 989 217 983 207 989 b 176 972 189 989 179 983 b 169 883 174 960 171 896 b 93 942 157 893 107 936 b 78 901 67 951 51 911 b 149 847 90 896 138 856 b 90 843 138 846 100 838 b 79 846 86 846 83 846 b 64 813 63 846 51 826 b 83 801 68 807 76 803 b 132 803 90 800 124 803 b 56 732 107 779 82 754 b 43 719 51 728 46 725 b 63 689 35 704 47 689 b 75 693 67 689 71 690 b 164 778 88 704 153 765 b 164 685 164 746 163 715 b 186 663 165 669 175 663 b 206 683 196 663 206 669 z "},"+":{"ha":563,"x_min":0,"x_max":0,"o":"m 346 217 b 333 372 344 268 338 321 b 461 378 351 374 444 379 b 472 375 463 378 471 375 b 508 463 522 371 549 432 b 435 476 494 472 467 476 b 329 469 394 476 351 471 b 340 596 329 489 333 576 b 296 664 353 631 329 664 b 242 597 257 664 244 629 b 232 460 236 551 232 506 b 114 449 193 456 153 451 b 104 451 110 449 107 450 b 86 454 97 454 92 454 b 60 360 39 454 13 388 b 110 351 69 354 88 351 b 238 363 154 351 213 361 b 249 233 239 347 247 249 b 297 167 249 201 257 167 b 346 217 322 167 347 185 z "},",":{"ha":160,"x_min":0,"x_max":0,"o":"m 67 -153 b 135 26 103 -100 126 -37 b 81 97 139 64 114 97 b 58 92 74 97 67 96 b 28 29 36 79 18 51 b 61 -6 33 14 53 8 b 67 -46 68 -17 69 -32 b 7 -161 58 -87 28 -124 b 8 -194 0 -174 -6 -190 b 67 -153 29 -201 54 -171 z "},"-":{"ha":569,"x_min":0,"x_max":0,"o":"m 329 369 b 476 379 349 371 458 379 b 513 382 489 379 501 378 b 529 461 546 394 554 436 b 503 475 522 469 513 475 b 329 467 479 478 353 468 b 76 458 297 465 108 458 b 76 361 10 457 10 360 b 329 369 108 361 297 368 z "},".":{"ha":151,"x_min":0,"x_max":0,"o":"m 125 33 b 79 97 133 65 113 97 b 39 13 33 97 7 44 b 75 -1 49 3 61 -1 b 125 33 97 -1 119 11 z "},"/":{"ha":517,"x_min":0,"x_max":0,"o":"m 71 -146 b 342 600 164 103 247 353 b 471 924 358 643 450 882 b 481 931 472 925 479 929 b 492 989 497 947 501 968 b 444 1019 482 1008 464 1019 b 401 997 429 1019 413 1011 b 335 849 386 976 343 872 b -19 -112 207 532 100 208 b 25 -179 -35 -151 -4 -179 b 71 -146 44 -179 63 -169 z "},":":{"ha":183,"x_min":0,"x_max":0,"o":"m 126 568 b 126 653 158 588 158 633 b 103 658 118 657 110 658 b 53 610 76 658 53 639 b 101 561 53 582 76 561 b 126 568 110 561 118 564 z m 133 33 b 88 97 142 65 121 97 b 47 13 42 97 15 44 b 83 -1 57 3 69 -1 b 133 33 106 -1 128 11 z "},";":{"ha":186,"x_min":0,"x_max":0,"o":"m 128 568 b 128 653 160 588 160 633 b 104 658 121 657 113 658 b 54 610 79 658 54 639 b 103 561 54 582 78 561 b 128 568 111 561 119 564 z m 74 -153 b 142 26 110 -100 133 -37 b 88 97 146 64 121 97 b 65 92 81 97 74 96 b 35 29 43 79 25 51 b 68 -6 40 14 60 8 b 74 -46 75 -17 76 -32 b 14 -161 65 -87 35 -124 b 15 -194 7 -174 1 -190 b 74 -153 36 -201 61 -171 z "},"<":{"ha":479,"x_min":0,"x_max":0,"o":"m 399 226 b 379 293 411 251 404 282 b 146 433 304 328 210 382 b 392 556 222 485 308 519 b 401 557 394 557 399 557 b 426 639 440 564 454 611 b 375 653 414 651 392 656 b 299 621 364 650 310 626 b 89 511 226 590 154 557 b 43 457 69 497 50 479 b 43 411 38 442 38 425 b 76 364 49 392 63 376 b 214 271 94 349 194 283 b 356 201 239 256 328 201 b 399 226 372 201 392 211 z "},"=":{"ha":586,"x_min":0,"x_max":0,"o":"m 410 482 b 478 482 419 482 468 481 b 504 564 517 489 532 536 b 476 578 497 571 486 576 b 85 564 421 583 140 568 b 50 481 42 560 19 511 b 86 465 60 471 74 465 b 410 482 194 475 301 481 z m 110 224 b 172 228 131 228 151 228 b 513 239 286 228 400 229 b 551 271 528 240 547 257 b 503 335 560 304 538 338 b 189 326 397 328 294 326 b 92 319 157 326 124 325 b 60 300 78 318 67 311 b 110 224 33 263 65 217 z "},">":{"ha":479,"x_min":0,"x_max":0,"o":"m 431 396 b 438 457 442 414 444 436 b 396 508 431 478 414 494 b 275 579 358 536 317 558 b 106 653 251 590 132 646 b 43 585 64 664 25 624 b 71 560 49 572 58 564 b 89 556 74 558 86 557 b 335 433 172 519 258 485 b 107 296 278 390 169 321 b 96 211 71 281 64 233 b 125 201 104 204 115 201 b 431 396 168 204 400 340 z "},"?":{"ha":604,"x_min":0,"x_max":0,"o":"m 249 236 b 258 265 256 244 258 256 b 254 350 256 293 253 322 b 274 414 256 372 260 396 b 350 471 294 438 324 453 b 511 624 415 511 472 557 b 475 956 582 735 592 892 b 376 979 446 972 411 979 b 69 836 275 979 142 911 b 40 788 56 822 43 807 b 88 728 33 751 60 728 b 133 760 106 728 124 738 b 169 794 140 775 156 785 b 376 882 224 838 304 882 b 410 878 388 882 399 881 b 460 744 465 864 476 799 b 281 540 432 642 364 596 b 183 451 243 517 206 489 b 157 304 157 408 154 354 b 164 246 158 294 160 256 b 210 215 174 226 192 215 b 249 236 225 215 239 222 z m 240 1 b 226 88 269 26 263 75 b 207 90 219 90 214 90 b 156 32 178 90 151 64 b 207 -11 160 6 183 -11 b 240 1 218 -11 231 -7 z "},"@":{"ha":1056,"x_min":0,"x_max":0,"o":"m 883 -19 b 838 56 904 17 879 60 b 801 32 824 56 808 44 b 547 -94 758 -47 636 -94 b 154 242 336 -94 175 25 b 190 478 147 321 161 404 b 610 771 258 657 419 771 b 888 564 747 771 851 700 b 876 308 910 482 907 388 b 772 213 860 265 825 213 b 676 342 697 213 679 281 b 692 492 674 392 681 442 b 711 576 694 504 711 564 b 692 615 711 590 703 607 b 579 674 682 653 615 674 b 304 350 425 674 331 479 b 317 175 293 293 290 228 b 422 113 338 133 379 113 b 593 250 504 113 557 186 b 771 115 618 165 693 115 b 963 264 863 115 929 183 b 996 510 996 340 1006 428 b 606 868 972 731 828 868 b 122 565 400 868 213 750 b 68 411 99 515 81 464 b 76 136 49 321 53 225 b 542 -192 135 -78 331 -192 b 883 -19 664 -192 821 -132 z m 411 213 b 393 261 399 218 394 247 b 413 382 392 301 400 343 b 576 575 433 446 496 575 b 610 567 588 575 600 572 b 592 494 603 543 599 518 b 447 218 565 414 514 274 b 411 213 438 211 422 207 z "},"A":{"ha":663,"x_min":0,"x_max":0,"o":"m 124 49 b 171 333 131 144 147 240 b 490 369 210 336 451 365 b 514 47 493 328 510 88 b 564 6 517 22 540 6 b 594 18 575 6 586 10 b 611 56 604 28 613 42 b 582 439 600 183 593 311 b 553 736 574 539 565 638 b 501 947 547 792 536 901 b 438 979 485 967 463 979 b 269 822 369 979 301 875 b 94 422 193 697 136 563 b 76 374 81 413 72 390 b 79 364 76 372 79 365 b 28 67 53 267 36 167 b 29 1 26 54 25 11 b 75 -31 36 -19 56 -31 b 124 49 122 -31 124 14 z m 431 874 b 482 465 451 815 476 526 b 200 433 388 456 294 444 b 431 874 244 569 329 772 z "},"B":{"ha":667,"x_min":0,"x_max":0,"o":"m 632 329 b 628 407 638 354 636 382 b 400 540 604 490 475 533 b 557 740 460 588 533 667 b 567 858 569 778 575 821 b 307 1028 542 976 418 1028 b 139 996 250 1028 192 1015 b 101 947 114 986 103 972 b 101 939 101 946 101 940 b 82 507 86 875 82 571 b 88 88 81 367 71 226 b 101 3 56 65 64 13 b 142 -1 114 0 128 -1 b 632 329 299 -1 588 161 z m 196 911 b 196 913 194 911 196 911 b 307 931 232 922 269 931 b 465 860 358 931 440 911 b 471 794 475 840 475 815 b 179 533 451 693 286 549 b 196 911 179 586 186 858 z m 178 431 b 215 440 190 433 203 436 b 307 447 232 446 268 447 b 513 401 374 447 458 444 b 538 367 524 393 536 382 b 513 303 540 344 526 322 b 183 101 435 201 308 131 b 178 431 171 210 176 321 z "},"C":{"ha":617,"x_min":0,"x_max":0,"o":"m 565 238 b 543 299 575 260 564 289 b 519 304 536 301 528 304 b 478 279 503 304 486 296 b 294 93 444 210 382 93 b 167 240 226 93 183 186 b 151 519 142 331 139 428 b 400 897 167 642 240 897 b 471 851 431 897 457 885 b 463 731 486 814 478 768 b 507 664 449 699 475 664 b 550 690 524 664 543 675 b 485 974 597 789 582 924 b 394 994 457 988 426 994 b 104 729 249 994 150 851 b 47 413 67 629 47 519 b 183 36 47 288 76 118 b 290 -3 214 13 253 -3 b 565 238 426 -3 517 125 z "},"D":{"ha":683,"x_min":0,"x_max":0,"o":"m 181 3 b 642 511 438 43 615 258 b 594 804 653 610 639 717 b 246 1006 524 940 394 1006 b 146 997 213 1006 179 1003 b 107 964 129 994 113 981 b 96 911 106 957 97 918 b 78 392 88 842 78 463 b 88 88 78 290 75 189 b 101 3 56 65 64 13 b 136 -1 113 0 124 -1 b 181 3 151 -1 167 0 z m 176 226 b 193 906 174 324 178 810 b 243 908 210 907 226 908 b 496 781 349 908 438 874 b 546 524 542 707 556 611 b 183 101 524 322 388 142 b 176 226 179 143 178 185 z "},"E":{"ha":622,"x_min":0,"x_max":0,"o":"m 578 47 b 607 114 603 58 618 89 b 561 144 597 133 579 144 b 536 138 553 144 544 143 b 525 131 535 136 528 131 b 299 86 453 103 376 86 b 192 161 217 86 213 89 b 165 461 165 258 163 361 b 374 507 235 476 303 500 b 403 588 411 511 429 561 b 365 604 393 597 379 606 b 168 563 299 597 233 578 b 190 875 174 667 181 771 b 394 903 242 894 340 903 b 508 890 433 903 471 900 b 567 947 542 882 575 915 b 533 983 563 963 550 979 b 400 999 490 994 446 999 b 99 919 326 999 125 989 b 90 843 96 908 92 856 b 67 379 78 689 65 535 b 136 44 68 294 83 117 b 314 -11 172 -7 256 -11 b 578 47 401 -11 499 11 z "},"F":{"ha":578,"x_min":0,"x_max":0,"o":"m 175 53 b 169 92 172 65 171 79 b 176 469 165 217 171 343 b 375 508 242 486 308 501 b 417 557 399 510 419 535 b 371 604 414 582 396 604 b 181 569 317 604 235 585 b 203 890 186 676 190 785 b 456 913 286 903 371 911 b 501 913 463 914 496 914 b 514 908 504 913 511 908 b 547 908 524 906 536 904 b 535 1007 594 931 586 996 b 483 1011 524 1010 506 1011 b 194 988 394 1011 240 994 b 165 997 186 993 176 997 b 108 942 135 997 115 968 b 110 922 107 936 110 929 b 76 49 90 789 58 182 b 129 -4 79 19 101 -7 b 175 53 160 -3 183 24 z "},"G":{"ha":632,"x_min":0,"x_max":0,"o":"m 567 19 b 540 229 543 86 539 158 b 565 464 540 307 560 385 b 554 494 567 475 561 486 b 501 515 542 510 519 519 b 360 492 476 511 385 486 b 351 496 357 493 354 494 b 335 499 346 499 340 499 b 303 413 292 499 265 443 b 372 393 321 397 350 393 b 460 407 401 393 432 400 b 449 339 457 385 454 361 b 274 103 429 268 361 103 b 235 117 260 103 244 108 b 158 274 192 150 171 222 b 147 451 147 332 144 392 b 288 857 153 578 196 761 b 386 907 314 885 349 907 b 467 836 429 907 458 878 b 460 717 475 797 469 756 b 507 658 453 688 478 658 b 553 692 525 658 547 674 b 557 876 569 751 575 818 b 385 1003 533 956 467 1003 b 100 718 233 1003 143 843 b 50 365 61 606 43 483 b 272 6 56 236 107 6 b 449 110 343 6 408 56 b 476 -14 453 68 461 26 b 521 -47 485 -37 503 -47 b 567 19 551 -47 582 -19 z "},"H":{"ha":746,"x_min":0,"x_max":0,"o":"m 675 31 b 671 78 682 46 681 64 b 663 161 665 106 664 133 b 671 926 656 276 650 813 b 676 939 672 928 676 938 b 632 1003 686 974 661 1003 b 586 974 614 1003 593 990 b 574 931 579 961 576 946 b 564 792 567 885 565 838 b 558 547 560 710 558 628 b 418 544 511 549 464 546 b 186 529 340 542 263 538 b 153 965 186 585 179 935 b 117 983 143 978 129 983 b 67 940 93 983 71 967 b 69 918 65 933 68 925 b 82 749 72 894 81 772 b 89 475 88 658 90 567 b 85 64 88 425 86 114 b 133 15 85 35 108 15 b 163 24 143 15 153 18 b 182 56 172 32 181 43 b 183 192 183 74 183 175 b 185 432 183 272 185 351 b 428 447 265 442 347 444 b 558 450 471 449 515 451 b 579 42 558 386 563 103 b 631 3 588 17 610 3 b 675 31 649 3 665 11 z "},"I":{"ha":264,"x_min":0,"x_max":0,"o":"m 163 10 b 186 53 176 19 188 36 b 167 410 175 171 168 290 b 203 935 167 585 179 761 b 185 983 204 951 199 974 b 154 993 175 990 165 993 b 107 951 132 993 110 978 b 89 44 67 651 60 346 b 139 3 92 19 115 3 b 163 10 147 3 156 4 z "},"J":{"ha":592,"x_min":0,"x_max":0,"o":"m 432 82 b 515 268 478 132 504 201 b 528 558 532 364 532 463 b 500 919 522 679 510 799 b 492 972 507 935 506 960 b 456 989 481 983 468 989 b 401 929 426 989 400 964 b 431 535 411 797 426 667 b 421 289 433 453 435 369 b 253 92 407 203 354 92 b 149 153 210 92 171 117 b 117 310 119 197 110 257 b 71 367 122 342 97 367 b 22 326 49 367 25 349 b 38 157 14 269 18 210 b 254 -6 71 65 154 -6 b 432 82 324 -6 386 32 z "},"K":{"ha":682,"x_min":0,"x_max":0,"o":"m 201 43 b 185 236 196 107 188 172 b 179 386 183 286 182 336 b 304 267 222 347 261 304 b 504 113 368 211 438 163 b 578 47 531 92 557 72 b 615 29 588 35 603 29 b 663 72 639 29 661 46 b 617 147 665 101 639 128 b 353 353 531 218 436 278 b 224 476 338 368 240 461 b 279 522 231 483 272 517 b 636 918 432 646 526 758 b 650 947 643 926 649 936 b 600 1004 653 979 626 1004 b 569 990 589 1004 579 1000 b 511 907 560 981 519 919 b 172 560 415 772 300 664 b 185 924 167 681 165 804 b 189 931 186 926 188 929 b 142 997 201 967 172 997 b 86 921 101 997 90 953 b 71 658 74 835 69 746 b 106 33 75 450 86 242 b 154 -7 107 13 131 -7 b 201 43 181 -4 204 17 z "},"L":{"ha":551,"x_min":0,"x_max":0,"o":"m 528 49 b 515 138 565 68 557 126 b 485 136 506 140 494 140 b 317 96 442 115 375 96 b 178 211 235 96 196 133 b 163 442 160 286 163 364 b 199 935 165 606 176 772 b 201 950 199 940 201 944 b 153 999 201 982 176 999 b 103 954 129 999 106 983 b 65 442 83 785 68 613 b 74 239 65 374 64 306 b 311 0 93 99 163 0 b 528 49 382 0 464 15 z "},"M":{"ha":1025,"x_min":0,"x_max":0,"o":"m 978 88 b 950 388 978 129 954 347 b 899 753 935 510 918 632 b 854 972 893 786 868 942 b 803 1010 844 994 828 1010 b 761 985 786 1010 769 1001 b 683 792 750 960 693 817 b 496 281 618 622 553 453 b 301 974 428 511 364 742 b 256 1007 296 994 276 1007 b 239 1004 250 1007 244 1007 b 208 978 226 999 215 989 b 124 700 181 938 135 747 b 61 344 97 582 75 464 b 54 51 50 247 43 149 b 101 10 58 25 79 10 b 150 42 121 10 140 21 b 153 82 156 53 158 69 b 149 92 151 83 149 90 b 168 411 140 199 153 306 b 249 799 188 542 214 672 b 424 185 306 594 360 389 b 458 94 428 169 447 107 b 499 76 469 82 483 76 b 544 110 518 76 538 88 b 643 407 572 210 607 308 b 792 800 690 539 740 669 b 881 74 810 694 885 181 b 878 63 881 72 878 64 b 926 7 874 29 900 7 b 978 88 971 7 978 53 z "},"N":{"ha":799,"x_min":0,"x_max":0,"o":"m 651 -4 b 675 31 663 3 672 17 b 726 492 706 182 721 338 b 703 965 733 650 731 810 b 657 1006 699 993 678 1006 b 607 947 629 1006 600 985 b 632 594 628 831 633 713 b 604 199 631 463 622 329 b 219 968 486 460 333 704 b 171 1001 210 989 190 1001 b 135 985 157 1001 144 996 b 122 946 126 974 125 960 b 71 503 92 800 76 651 b 94 43 64 350 68 194 b 142 1 100 15 121 1 b 190 61 169 1 197 24 b 165 403 171 174 165 289 b 194 792 167 533 175 664 b 571 22 319 535 472 290 b 611 -10 578 7 593 -8 b 651 -4 624 -11 639 -11 z "},"O":{"ha":778,"x_min":0,"x_max":0,"o":"m 683 256 b 700 736 743 404 749 583 b 579 932 676 808 638 882 b 410 1001 535 975 472 1001 b 193 897 326 1001 250 956 b 68 656 131 831 90 743 b 72 281 38 533 39 400 b 368 -8 108 143 213 -8 b 683 256 521 -8 629 126 z m 156 349 b 194 724 131 472 143 610 b 410 906 231 806 311 906 b 622 646 536 906 601 749 b 585 272 647 522 636 386 b 364 89 546 186 468 89 b 156 349 243 89 175 249 z "},"P":{"ha":669,"x_min":0,"x_max":0,"o":"m 157 21 b 172 57 167 31 174 44 b 169 343 168 94 169 306 b 643 683 350 367 604 483 b 550 939 661 775 624 878 b 325 1013 489 992 406 1013 b 144 974 290 1013 171 1003 b 83 685 110 932 88 738 b 74 56 65 476 74 265 b 122 7 74 25 97 7 b 157 21 135 7 147 11 z m 190 768 b 218 901 196 814 204 858 b 325 915 253 910 289 915 b 518 832 396 915 475 892 b 524 639 558 775 560 700 b 171 442 456 528 293 460 b 190 768 172 551 175 660 z "},"Q":{"ha":779,"x_min":0,"x_max":0,"o":"m 768 -197 b 757 -110 801 -172 797 -119 b 740 -107 756 -108 743 -107 b 576 88 689 -83 608 39 b 685 261 624 136 660 197 b 700 736 743 408 747 585 b 579 932 676 808 638 882 b 410 1001 535 975 472 1001 b 193 897 326 1001 250 956 b 68 656 131 831 90 743 b 72 281 38 533 39 400 b 369 -8 110 142 211 -8 b 499 29 415 -8 458 7 b 586 -93 528 -12 556 -54 b 740 -204 618 -135 682 -204 b 768 -197 750 -204 760 -203 z m 156 349 b 194 724 131 472 143 610 b 410 906 231 806 311 906 b 622 649 533 906 601 751 b 597 301 644 535 638 410 b 522 172 579 256 554 211 b 497 224 513 189 506 206 b 493 235 496 225 494 233 b 479 256 490 243 486 250 b 449 265 469 263 460 265 b 403 194 415 265 386 231 b 446 110 417 167 429 138 b 365 89 422 97 393 89 b 156 349 243 89 175 247 z "},"R":{"ha":682,"x_min":0,"x_max":0,"o":"m 610 72 b 374 401 510 144 390 274 b 636 657 479 449 607 538 b 629 826 651 711 649 774 b 325 1013 583 956 454 1013 b 144 974 290 1013 171 1003 b 83 685 110 932 88 738 b 74 56 65 476 74 265 b 122 7 74 25 97 7 b 157 21 135 7 147 11 b 172 57 167 31 174 44 b 169 343 168 94 169 306 b 281 368 207 349 244 357 b 540 3 311 224 424 89 b 581 -14 551 -6 565 -14 b 610 72 626 -10 647 47 z m 190 768 b 218 901 196 814 204 858 b 325 915 253 910 289 915 b 518 832 396 915 475 892 b 524 639 558 775 560 700 b 171 442 456 528 293 460 b 190 768 172 551 175 660 z "},"S":{"ha":622,"x_min":0,"x_max":0,"o":"m 565 161 b 488 456 593 264 564 376 b 260 653 418 528 331 581 b 210 725 240 674 221 699 b 203 779 204 742 200 761 b 346 906 215 844 278 906 b 425 878 374 906 404 896 b 472 771 453 850 467 810 b 519 729 475 744 497 729 b 558 749 535 729 549 735 b 531 899 583 783 551 861 b 353 1003 493 964 426 1003 b 329 1001 346 1003 338 1003 b 106 757 208 989 103 879 b 164 615 107 707 132 656 b 343 456 215 554 281 506 b 472 288 401 408 453 364 b 468 179 482 253 481 214 b 357 107 450 129 407 107 b 99 247 254 107 168 179 b 68 260 90 256 79 260 b 21 226 47 260 28 247 b 31 179 17 211 19 190 b 351 10 115 94 225 10 b 565 161 449 10 539 64 z "},"T":{"ha":635,"x_min":0,"x_max":0,"o":"m 379 53 b 381 914 332 335 324 632 b 531 910 431 915 481 915 b 597 904 542 910 586 901 b 618 990 638 915 651 967 b 442 1013 589 1010 476 1013 b 32 972 393 1013 78 990 b 28 883 -8 958 -11 901 b 60 879 38 879 49 876 b 279 906 89 888 249 903 b 285 35 226 621 236 321 b 331 -6 289 7 310 -6 b 379 53 357 -6 386 15 z "},"U":{"ha":756,"x_min":0,"x_max":0,"o":"m 690 456 b 696 775 703 561 704 669 b 664 965 690 840 681 904 b 619 997 658 985 639 997 b 571 940 589 997 563 972 b 604 649 594 846 603 747 b 364 96 604 501 576 96 b 163 363 225 96 175 249 b 219 942 139 556 169 754 b 188 996 225 963 210 990 b 172 997 182 997 178 997 b 126 965 151 997 132 986 b 61 593 90 844 69 719 b 83 256 53 481 54 365 b 371 0 122 113 211 0 b 690 456 594 0 667 278 z "},"V":{"ha":704,"x_min":0,"x_max":0,"o":"m 522 149 b 586 390 554 225 571 308 b 671 932 619 569 635 753 b 638 988 675 956 661 981 b 624 989 633 989 628 989 b 576 957 603 989 582 978 b 514 551 563 903 522 606 b 481 356 504 485 494 419 b 358 97 471 307 425 100 b 299 132 335 94 313 114 b 190 469 238 210 206 374 b 142 874 167 603 154 738 b 139 928 140 892 139 910 b 89 978 139 961 114 978 b 43 939 68 978 47 965 b 50 814 39 919 49 833 b 125 306 65 643 82 471 b 351 -1 150 197 214 -1 b 522 149 442 -1 490 74 z "},"W":{"ha":1047,"x_min":0,"x_max":0,"o":"m 982 618 b 1000 939 993 725 1001 832 b 951 989 1000 972 976 989 b 903 939 928 989 903 972 b 890 679 904 853 899 765 b 781 171 875 526 846 313 b 729 100 772 151 749 106 b 699 124 717 97 706 114 b 658 226 679 156 668 192 b 629 374 646 275 638 325 b 574 849 604 532 593 690 b 525 893 571 878 549 893 b 475 849 501 893 479 878 b 436 493 461 731 450 611 b 392 232 425 406 413 317 b 350 125 382 194 371 157 b 321 101 344 114 332 97 b 206 375 267 114 215 329 b 161 654 185 468 171 561 b 146 939 151 749 144 844 b 96 989 146 972 121 989 b 49 949 75 989 54 976 b 60 696 42 911 57 733 b 324 4 72 554 126 4 b 486 211 426 4 465 131 b 525 421 504 279 515 350 b 653 29 539 317 565 101 b 728 3 674 13 700 3 b 982 618 907 3 965 483 z "},"X":{"ha":644,"x_min":0,"x_max":0,"o":"m 600 92 b 357 493 564 117 383 446 b 599 894 389 553 556 843 b 608 901 600 896 607 901 b 575 986 642 936 617 986 b 557 983 569 986 564 986 b 453 851 524 971 471 881 b 301 593 400 767 350 681 b 132 935 275 642 149 883 b 83 988 132 967 108 988 b 50 972 72 988 60 982 b 35 933 39 963 33 947 b 76 817 38 892 60 854 b 246 493 129 707 186 600 b 35 68 210 429 51 139 b 68 3 29 42 42 10 b 82 1 72 1 76 1 b 132 42 107 1 129 17 b 132 56 132 44 132 53 b 301 393 150 106 276 346 b 536 15 335 333 488 64 b 576 1 547 7 563 1 b 600 92 625 1 642 63 z "},"Y":{"ha":628,"x_min":0,"x_max":0,"o":"m 135 42 b 135 56 135 44 135 53 b 161 117 143 76 151 97 b 601 894 219 240 514 790 b 611 901 603 896 610 901 b 578 986 644 936 619 986 b 560 983 572 986 567 986 b 453 849 526 971 472 878 b 297 581 399 760 347 671 b 138 914 244 664 167 815 b 135 931 136 919 133 925 b 86 986 140 963 114 986 b 38 942 64 986 38 965 b 176 593 31 869 142 657 b 243 485 197 556 218 519 b 38 68 210 422 54 138 b 71 3 32 42 44 10 b 85 1 75 1 79 1 b 135 42 110 1 132 17 z "},"Z":{"ha":654,"x_min":0,"x_max":0,"o":"m 599 38 b 618 115 631 46 642 92 b 572 131 607 126 589 135 b 232 89 463 101 347 89 b 135 93 200 89 167 90 b 619 915 200 193 601 821 b 604 969 622 933 617 956 b 560 993 592 981 576 989 b 335 1017 488 1013 408 1017 b 119 992 263 1017 188 1013 b 140 897 60 974 79 886 b 185 908 156 899 169 906 b 318 919 228 917 274 919 b 511 906 382 919 447 917 b 340 606 461 801 400 704 b 39 125 242 444 143 283 b 22 100 38 122 24 103 b 36 25 7 75 14 42 b 106 0 56 10 81 3 b 218 -10 143 -7 181 -10 b 599 38 344 -10 476 4 z "},"[":{"ha":422,"x_min":0,"x_max":0,"o":"m 363 -75 b 374 10 400 -62 407 -12 b 344 19 365 15 354 19 b 296 7 328 18 313 10 b 178 -8 257 -1 217 -6 b 181 388 171 124 172 256 b 193 644 185 474 190 560 b 200 893 194 681 193 858 b 204 900 201 896 201 900 b 250 900 210 901 244 900 b 338 915 279 900 310 904 b 389 974 369 915 397 942 b 335 1014 382 999 361 1015 b 268 997 311 1013 290 1000 b 150 983 229 994 183 1006 b 119 951 138 976 126 965 b 103 896 110 935 106 915 b 96 628 97 861 96 664 b 85 419 93 558 89 489 b 81 -8 76 276 74 133 b 161 -107 81 -69 96 -107 b 363 -75 218 -107 313 -94 z "},"\\":{"ha":517,"x_min":0,"x_max":0,"o":"m 538 -112 b 207 789 426 188 325 492 b 122 988 196 819 142 961 b 69 1019 110 1006 90 1019 b 46 1013 61 1019 54 1018 b 39 929 18 992 11 949 b 47 922 40 928 46 925 b 129 722 60 897 119 749 b 446 -144 242 436 339 143 b 492 -179 454 -168 474 -179 b 538 -112 522 -179 553 -151 z "},"]":{"ha":424,"x_min":0,"x_max":0,"o":"m 285 -104 b 336 -60 307 -101 331 -82 b 340 388 356 10 344 317 b 325 729 333 501 326 615 b 313 929 325 796 331 864 b 207 997 299 983 257 997 b 121 1006 178 997 147 994 b 86 1013 110 1010 97 1013 b 36 979 63 1013 42 1003 b 75 915 28 950 44 918 b 86 915 76 915 85 915 b 171 900 113 904 143 900 b 221 900 188 900 204 901 b 228 811 225 888 228 826 b 235 518 229 714 229 615 b 246 -8 244 343 254 167 b 126 7 206 -6 167 -1 b 68 18 107 10 88 22 b 54 -72 24 10 13 -53 b 285 -104 96 -92 239 -112 z "},"^":{"ha":472,"x_min":0,"x_max":0,"o":"m 126 651 b 254 847 146 676 238 821 b 365 674 274 810 326 692 b 390 669 374 671 382 669 b 414 675 399 669 407 671 b 425 749 439 693 446 728 b 406 771 418 756 411 764 b 317 939 372 825 347 883 b 258 982 303 963 288 982 b 219 965 244 982 231 976 b 54 718 190 936 79 751 b 44 708 53 717 46 710 b 83 629 15 668 47 629 b 126 651 97 629 114 636 z "},"_":{"ha":738,"x_min":0,"x_max":0,"o":"m 306 -124 b 517 -112 376 -117 447 -112 b 664 -119 567 -112 615 -115 b 697 -122 675 -121 686 -125 b 711 -32 743 -115 753 -51 b 636 -19 689 -21 663 -22 b 525 -17 600 -18 563 -17 b 333 -24 461 -17 397 -19 b 60 -44 242 -32 150 -44 b 39 -44 53 -43 44 -42 b 1 -76 22 -49 6 -61 b 33 -137 -6 -101 7 -131 b 75 -140 42 -140 57 -140 b 306 -124 147 -140 271 -126 z "},"`":{"ha":319,"x_min":0,"x_max":0,"o":"m 288 792 b 269 824 286 804 279 817 b 114 985 208 868 169 935 b 82 997 104 994 92 997 b 39 924 47 997 18 960 b 74 888 43 918 69 893 b 215 743 97 863 185 758 b 238 738 222 739 231 738 b 288 792 265 738 290 761 z "},"a":{"ha":610,"x_min":0,"x_max":0,"o":"m 417 261 b 471 63 426 193 442 125 b 524 0 479 44 506 6 b 575 79 574 -12 610 43 b 506 324 531 129 513 260 b 504 589 496 411 493 501 b 476 679 507 618 503 667 b 464 683 474 679 465 682 b 364 711 438 706 397 711 b 117 553 246 711 174 653 b 101 33 38 410 -15 150 b 201 -6 125 8 164 -6 b 417 261 319 -6 385 169 z m 156 118 b 131 260 131 158 129 211 b 296 603 136 363 190 556 b 389 613 325 617 358 617 b 406 606 396 611 407 611 b 218 97 383 494 311 163 b 199 90 213 93 206 90 b 156 118 182 90 165 103 z "},"b":{"ha":671,"x_min":0,"x_max":0,"o":"m 182 49 b 181 64 181 54 176 68 b 339 7 224 29 283 7 b 635 403 528 7 622 247 b 610 594 640 467 635 535 b 415 728 572 678 510 728 b 160 506 283 728 207 613 b 235 950 169 656 197 804 b 188 1008 243 979 217 1008 b 142 975 169 1008 147 993 b 63 496 100 818 71 657 b 74 86 54 360 60 222 b 131 -4 78 50 83 -4 b 182 49 158 -4 185 17 z m 186 221 b 414 631 200 333 267 631 b 490 601 442 631 472 621 b 531 525 511 582 524 553 b 533 374 542 476 542 424 b 342 103 518 276 460 111 b 186 221 269 103 210 154 z "},"c":{"ha":554,"x_min":0,"x_max":0,"o":"m 521 243 b 533 283 522 249 532 278 b 485 340 536 315 513 340 b 439 306 465 340 443 326 b 342 133 421 243 389 181 b 226 76 313 106 265 76 b 189 88 213 76 200 79 b 140 364 124 132 128 286 b 294 631 151 435 199 631 b 342 572 329 631 339 601 b 342 514 342 553 335 532 b 389 482 350 493 369 482 b 439 569 436 482 439 535 b 293 728 439 654 381 728 b 61 456 157 728 88 567 b 42 181 38 367 29 272 b 167 -10 53 106 90 17 b 225 -21 185 -17 204 -21 b 521 243 365 -21 481 122 z "},"d":{"ha":621,"x_min":0,"x_max":0,"o":"m 417 264 b 539 -1 425 206 461 -1 b 588 47 564 -1 588 18 b 556 110 588 71 565 89 b 513 285 531 164 521 225 b 500 542 500 369 496 456 b 540 957 503 594 536 904 b 507 1003 543 975 526 997 b 493 1004 503 1004 497 1004 b 444 964 468 1004 447 989 b 417 706 440 932 421 736 b 358 713 397 710 378 713 b 35 288 149 713 51 464 b 49 124 31 232 35 176 b 199 -7 68 50 129 -7 b 417 264 319 -7 386 171 z m 139 160 b 144 357 124 224 131 293 b 296 603 163 439 213 565 b 389 613 324 617 358 617 b 404 606 394 611 406 611 b 254 139 379 471 331 256 b 197 90 244 122 218 90 b 139 160 167 90 147 129 z "},"e":{"ha":556,"x_min":0,"x_max":0,"o":"m 521 243 b 533 283 522 249 532 278 b 485 340 536 315 513 340 b 439 306 465 340 443 326 b 246 79 414 219 344 97 b 196 83 229 75 211 75 b 135 321 131 115 128 249 b 185 314 151 317 168 314 b 374 411 254 314 329 363 b 371 706 454 499 468 638 b 294 728 349 719 321 728 b 78 515 178 728 111 613 b 42 181 43 410 26 293 b 167 -10 53 104 89 18 b 225 -21 185 -17 204 -21 b 521 243 365 -21 481 122 z m 153 422 b 293 632 165 482 215 632 b 328 614 307 632 319 626 b 336 532 344 592 346 558 b 183 411 314 478 247 411 b 153 422 172 411 161 415 z "},"f":{"ha":589,"x_min":0,"x_max":0,"o":"m 253 43 b 232 543 238 210 233 376 b 422 554 256 544 399 553 b 458 561 435 556 449 556 b 458 646 492 581 492 626 b 422 651 449 651 435 653 b 235 640 399 650 257 642 b 390 901 239 739 261 901 b 465 864 419 901 450 892 b 469 813 472 849 471 831 b 503 767 468 794 485 772 b 567 806 532 760 564 776 b 565 867 568 826 569 847 b 532 939 560 893 549 917 b 388 1000 496 981 442 1000 b 136 632 189 1000 144 790 b 39 617 119 629 54 625 b 56 526 0 594 11 535 b 135 533 68 525 122 532 b 156 35 136 367 142 200 b 206 -6 158 11 183 -8 b 253 43 232 -4 256 17 z "},"g":{"ha":579,"x_min":0,"x_max":0,"o":"m 513 -71 b 536 151 533 0 538 76 b 514 422 535 242 524 332 b 503 581 507 475 499 528 b 503 632 504 597 507 615 b 501 635 503 632 501 633 b 475 678 501 651 490 671 b 464 682 474 678 465 681 b 358 710 435 706 394 710 b 97 514 228 710 151 624 b 49 121 42 394 14 249 b 203 -7 68 47 125 -7 b 429 300 326 -7 399 203 b 438 68 438 222 443 144 b 250 -182 429 -49 392 -182 b 168 -160 221 -182 193 -175 b 140 -131 156 -153 146 -142 b 128 -97 135 -119 135 -107 b 85 -74 117 -82 100 -74 b 40 -106 65 -74 47 -85 b 50 -168 33 -125 42 -149 b 250 -279 85 -243 171 -279 b 513 -71 382 -279 476 -194 z m 131 208 b 169 438 128 286 142 365 b 347 613 204 519 250 606 b 406 604 360 613 396 613 b 254 136 378 467 332 257 b 200 89 244 122 218 89 b 131 208 149 89 132 171 z "},"h":{"ha":671,"x_min":0,"x_max":0,"o":"m 140 -4 b 154 17 147 1 153 8 b 179 146 158 33 176 129 b 433 628 201 263 275 628 b 521 474 497 628 514 521 b 522 86 536 346 522 215 b 529 17 522 74 524 28 b 575 -14 539 -4 557 -14 b 614 6 590 -14 604 -8 b 622 36 619 14 624 25 b 619 86 621 51 619 69 b 622 415 619 196 628 306 b 436 724 617 533 590 724 b 181 504 308 724 228 608 b 169 943 183 650 179 797 b 122 996 169 972 153 996 b 72 946 96 996 71 976 b 60 32 93 642 85 335 b 110 -17 58 4 83 -17 b 140 -4 121 -17 132 -12 z "},"i":{"ha":226,"x_min":0,"x_max":0,"o":"m 158 961 b 133 968 150 965 142 968 b 88 933 114 968 93 956 b 140 868 78 899 104 865 b 158 961 188 872 200 936 z m 144 31 b 154 60 151 39 154 50 b 149 149 151 90 149 119 b 158 486 149 192 156 443 b 171 656 158 510 167 632 b 122 711 176 686 151 711 b 75 678 101 711 79 699 b 69 615 69 658 71 636 b 64 536 68 589 65 563 b 51 181 61 490 51 226 b 60 42 51 158 51 64 b 106 10 68 21 86 10 b 144 31 121 10 135 17 z "},"j":{"ha":228,"x_min":0,"x_max":0,"o":"m 168 890 b 153 975 197 915 189 961 b 136 978 147 976 142 978 b 88 921 108 978 83 951 b 138 879 92 896 114 879 b 168 890 149 879 158 883 z m 7 -278 b 128 -142 61 -251 106 -199 b 157 72 154 -75 158 0 b 168 635 151 260 144 449 b 172 644 168 636 171 643 b 125 708 182 678 156 708 b 74 664 99 708 78 689 b 57 439 63 590 60 514 b 60 72 51 317 57 194 b 50 -67 61 26 60 -21 b -61 -201 31 -146 8 -167 b -74 -276 -87 -214 -94 -256 b -36 -292 -64 -286 -50 -293 b 7 -278 -21 -290 -7 -283 z "},"k":{"ha":629,"x_min":0,"x_max":0,"o":"m 157 26 b 224 283 175 113 197 199 b 443 67 289 204 364 132 b 578 -14 471 44 540 -14 b 582 -14 579 -14 581 -14 b 596 78 626 -8 629 47 b 371 292 521 149 443 218 b 299 374 344 318 319 344 b 276 418 292 383 275 408 b 296 453 278 425 292 447 b 468 649 340 519 406 600 b 457 744 508 679 504 744 b 256 590 410 744 283 624 b 179 457 224 550 199 504 b 171 926 183 614 181 771 b 153 983 169 946 168 971 b 121 996 143 993 132 996 b 72 943 94 996 71 974 b 60 35 93 642 85 336 b 106 -17 57 1 81 -17 b 157 26 128 -17 150 -3 z "},"l":{"ha":249,"x_min":0,"x_max":0,"o":"m 157 29 b 169 950 183 335 190 644 b 121 1000 167 979 153 1000 b 72 950 94 1000 71 981 b 60 38 93 647 85 340 b 110 -12 57 10 83 -12 b 157 29 131 -12 154 7 z "},"m":{"ha":924,"x_min":0,"x_max":0,"o":"m 157 42 b 246 439 185 175 204 310 b 350 625 261 486 306 604 b 367 629 356 628 361 629 b 436 503 422 629 432 543 b 433 329 440 446 438 388 b 415 40 429 285 406 85 b 463 0 421 14 442 0 b 511 43 485 0 506 15 b 513 129 517 72 511 101 b 672 614 517 253 567 531 b 704 624 682 621 693 624 b 751 597 722 624 740 615 b 781 483 771 564 776 522 b 776 274 786 414 782 343 b 769 29 774 232 756 69 b 815 -3 778 8 796 -3 b 856 18 831 -3 846 4 b 864 47 861 26 865 38 b 863 111 863 68 861 90 b 878 482 868 235 888 358 b 704 721 868 589 836 721 b 522 575 615 721 563 646 b 367 725 506 654 457 725 b 157 481 246 725 188 576 b 142 675 154 546 149 611 b 94 717 139 699 118 717 b 46 658 67 717 43 692 b 64 349 58 556 63 451 b 60 46 64 247 60 147 b 108 -4 60 17 83 -4 b 157 42 136 -4 151 17 z "},"n":{"ha":671,"x_min":0,"x_max":0,"o":"m 153 15 b 178 147 158 32 175 129 b 310 547 203 276 238 436 b 429 629 336 586 383 629 b 514 515 486 629 506 560 b 522 131 539 389 526 258 b 526 18 521 111 521 35 b 572 -15 535 -3 553 -15 b 613 6 588 -15 603 -8 b 621 36 618 14 622 25 b 622 222 615 97 621 160 b 618 478 626 307 628 393 b 431 724 607 590 564 724 b 157 453 282 724 201 574 b 140 663 154 522 149 593 b 121 696 139 675 131 688 b 93 704 113 701 103 704 b 44 646 65 704 42 679 b 63 336 57 543 61 439 b 58 33 63 235 58 133 b 108 -17 58 1 83 -17 b 153 15 126 -17 144 -7 z "},"o":{"ha":560,"x_min":0,"x_max":0,"o":"m 468 158 b 519 485 521 254 540 376 b 304 711 499 592 425 711 b 107 586 219 711 150 654 b 33 346 60 517 38 429 b 81 128 31 272 44 193 b 258 10 115 60 179 10 b 468 158 351 10 426 81 z m 135 269 b 149 446 126 328 129 390 b 303 614 172 519 229 614 b 426 451 378 614 418 511 b 413 275 433 392 431 331 b 260 106 389 203 332 106 b 135 269 182 106 143 207 z "},"p":{"ha":658,"x_min":0,"x_max":0,"o":"m 169 -235 b 182 56 161 -137 169 -40 b 340 7 226 24 285 1 b 592 251 468 13 556 140 b 615 540 622 343 636 446 b 411 729 594 640 521 729 b 154 419 261 729 189 538 b 196 683 164 508 178 596 b 188 721 199 697 196 710 b 150 742 178 735 164 742 b 100 700 128 742 106 726 b 64 -218 38 400 31 86 b 118 -287 68 -251 86 -287 b 121 -287 118 -287 119 -287 b 169 -235 149 -285 171 -262 z m 199 176 b 410 631 215 274 283 631 b 528 454 501 631 525 528 b 483 242 529 382 513 307 b 325 103 456 178 403 103 b 199 176 278 103 229 132 z "},"q":{"ha":550,"x_min":0,"x_max":0,"o":"m 535 -200 b 515 -160 525 -187 519 -174 b 489 63 496 -87 493 -11 b 492 449 483 192 485 321 b 503 583 494 493 497 539 b 503 633 504 600 507 617 l 501 636 b 475 679 501 653 490 672 b 464 683 474 679 465 682 b 364 711 438 706 397 711 b 117 553 246 711 174 653 b 35 288 71 472 43 379 b 49 124 31 232 35 176 b 199 -7 68 50 129 -7 b 389 190 300 -7 356 111 b 404 -96 390 94 393 0 b 476 -272 411 -147 426 -254 b 493 -275 482 -274 488 -275 b 535 -200 529 -275 558 -233 z m 188 93 b 131 242 140 108 131 192 b 161 415 129 300 142 360 b 296 603 183 482 228 572 b 389 613 324 617 358 617 b 404 606 394 611 406 611 b 313 263 382 489 354 374 b 211 93 299 221 250 113 b 188 93 204 90 194 90 z "},"r":{"ha":485,"x_min":0,"x_max":0,"o":"m 164 7 b 178 147 176 31 178 121 b 224 350 178 179 215 319 b 399 592 257 457 297 535 b 432 606 410 597 421 604 b 472 664 460 611 479 638 b 419 703 465 689 443 703 b 229 576 363 703 264 617 b 156 451 199 539 174 496 b 136 638 154 475 138 615 b 136 657 136 644 138 651 b 86 696 129 681 108 696 b 39 654 64 696 42 676 b 58 450 36 624 56 479 b 81 153 63 408 83 194 b 76 15 79 129 68 38 b 122 -17 83 -6 103 -17 b 164 7 138 -17 154 -8 z "},"s":{"ha":524,"x_min":0,"x_max":0,"o":"m 453 81 b 464 201 475 117 479 160 b 378 318 447 246 413 285 b 254 433 338 358 293 393 b 197 504 232 454 211 478 b 261 615 174 551 208 607 b 283 617 268 617 276 617 b 397 536 332 617 392 589 b 446 494 399 511 422 494 b 476 507 457 494 468 499 b 493 544 486 517 494 531 b 264 714 483 656 374 724 b 94 517 163 706 85 619 b 163 388 99 468 131 424 b 313 247 208 336 264 294 b 367 125 346 214 393 163 b 264 72 340 89 308 72 b 131 146 207 72 161 99 b 121 169 128 151 119 164 b 72 225 125 200 101 225 b 26 193 54 225 31 213 b 136 8 8 126 78 43 b 261 -25 175 -14 218 -25 b 453 81 338 -25 411 11 z "},"t":{"ha":444,"x_min":0,"x_max":0,"o":"m 404 26 b 371 117 450 54 425 126 b 329 103 357 114 344 103 b 265 129 307 103 282 113 b 208 581 194 203 206 479 b 285 578 218 581 275 579 b 308 575 293 576 300 574 b 313 672 368 579 372 663 b 211 678 279 676 246 678 b 225 817 214 725 218 771 b 228 835 226 822 228 828 b 179 883 228 865 204 883 b 132 849 160 883 140 872 b 114 679 124 824 115 706 b 44 669 92 679 65 682 b 42 588 14 651 13 608 b 111 582 61 575 88 582 b 135 182 107 449 104 311 b 183 75 144 143 160 106 b 329 6 217 35 275 6 b 404 26 356 6 381 14 z "},"u":{"ha":671,"x_min":0,"x_max":0,"o":"m 514 254 b 531 44 518 185 522 114 b 579 3 533 22 556 3 b 626 61 606 3 629 28 b 610 371 615 164 610 268 b 613 674 608 472 613 574 b 564 724 613 703 589 724 b 518 690 543 724 524 710 b 493 560 514 674 496 576 b 361 160 468 435 433 267 b 243 78 335 121 288 78 b 157 192 185 78 167 146 b 150 576 132 318 144 449 b 144 689 150 596 151 672 b 99 722 136 710 118 722 b 60 701 83 722 69 715 b 50 671 53 693 49 682 b 49 485 56 610 51 547 b 53 229 46 400 43 314 b 240 -17 67 118 107 -17 b 514 254 390 -17 469 132 z "},"v":{"ha":590,"x_min":0,"x_max":0,"o":"m 499 328 b 565 653 525 435 543 544 b 557 689 567 665 564 679 b 518 710 547 703 533 710 b 469 668 496 710 475 694 b 396 314 446 550 426 431 b 285 92 381 261 340 117 b 278 90 283 90 281 89 b 214 179 251 96 224 154 b 139 504 169 281 154 393 b 131 654 136 528 126 631 b 83 711 138 686 111 711 b 35 676 64 711 39 696 b 43 485 26 644 39 518 b 126 135 61 367 76 244 b 282 -8 157 72 201 -8 b 499 328 414 -1 474 225 z "},"w":{"ha":882,"x_min":0,"x_max":0,"o":"m 833 354 b 836 676 843 461 844 569 b 786 718 833 700 808 718 b 738 661 756 718 729 693 b 732 319 753 606 739 376 b 649 101 724 261 701 128 b 615 103 639 96 625 97 b 524 351 561 135 533 290 b 490 607 518 388 490 571 b 443 654 490 636 467 654 b 408 640 431 654 418 650 b 393 613 400 633 394 622 b 268 104 385 514 349 151 b 240 100 260 100 249 99 b 165 242 197 111 175 199 b 143 654 138 376 133 517 b 146 665 143 656 146 664 b 97 722 149 699 124 722 b 47 676 74 722 50 700 b 44 422 40 592 40 507 b 247 3 53 301 76 3 b 442 263 376 3 418 161 b 633 1 464 164 506 1 b 833 354 789 1 822 238 z "},"x":{"ha":582,"x_min":0,"x_max":0,"o":"m 560 49 b 543 76 557 60 551 69 b 321 340 460 157 383 244 b 518 617 385 433 446 529 b 526 625 519 621 524 622 b 501 710 556 654 543 706 b 499 710 500 710 500 710 b 443 679 478 710 457 694 b 265 432 378 600 321 517 b 168 663 225 504 192 582 b 169 669 168 663 169 668 b 140 721 171 693 161 711 b 117 726 132 725 125 726 b 67 661 85 726 58 697 b 82 608 68 654 81 615 b 204 342 113 515 154 426 b 29 88 146 257 86 172 b 82 15 4 50 40 3 b 108 32 93 17 103 24 b 261 254 126 58 243 228 b 481 3 326 164 400 79 b 513 -10 490 -6 501 -10 b 560 49 540 -10 569 17 z "},"y":{"ha":664,"x_min":0,"x_max":0,"o":"m 501 -149 b 597 140 557 -64 582 40 b 617 558 618 278 619 419 b 613 675 615 597 613 636 b 564 724 613 706 588 724 b 522 700 547 724 532 717 b 510 646 518 692 511 654 b 397 225 482 503 458 357 b 243 79 369 167 318 79 b 143 367 153 79 144 247 b 146 682 143 413 156 636 b 100 721 142 707 121 721 b 64 706 88 721 74 717 b 50 671 54 697 49 683 b 47 469 56 604 50 538 b 53 235 44 392 44 313 b 242 -17 64 121 106 -17 b 513 250 390 -17 465 129 b 392 -132 503 128 475 -37 b 275 -192 363 -164 317 -192 b 188 -119 228 -192 207 -158 b 136 -97 181 -103 154 -92 b 101 -162 107 -104 89 -135 b 275 -289 133 -236 193 -289 b 501 -149 369 -289 450 -224 z "},"z":{"ha":531,"x_min":0,"x_max":0,"o":"m 493 65 b 474 149 522 92 511 139 b 436 143 461 153 447 150 b 246 99 382 104 310 99 b 128 117 207 99 164 101 b 160 174 135 138 146 156 b 369 422 224 261 306 333 b 454 654 406 474 478 594 b 229 751 426 725 299 751 b 42 665 178 751 46 726 b 89 613 39 635 63 613 b 106 615 94 613 100 613 b 143 638 111 617 139 636 b 226 654 169 650 199 653 b 347 628 268 654 311 647 b 360 619 351 626 360 624 b 269 451 347 557 310 501 b 65 208 204 369 124 297 b 31 129 50 185 36 157 b 36 67 26 108 26 85 b 249 1 68 17 178 1 b 493 65 318 1 440 15 z "},"{":{"ha":535,"x_min":0,"x_max":0,"o":"m 388 -62 b 463 31 429 -43 482 -12 b 415 61 453 49 435 61 b 392 54 407 61 399 60 b 335 22 374 42 357 24 b 315 28 328 22 321 25 b 251 236 274 58 256 185 b 243 403 246 292 249 347 b 201 500 239 438 226 475 b 267 624 235 533 254 578 b 318 839 288 694 290 771 b 396 922 332 874 358 928 b 404 918 399 921 403 921 b 457 869 410 893 429 869 b 506 918 482 869 506 890 b 482 976 506 931 490 967 b 390 1019 461 1004 425 1019 b 199 778 269 1019 221 875 b 146 585 186 713 181 642 b 106 549 136 569 122 556 b 51 529 88 542 65 542 b 67 446 22 506 31 457 b 135 429 79 443 125 439 b 149 363 144 419 147 378 b 169 122 153 282 151 200 b 335 -75 190 36 228 -75 b 388 -62 353 -75 371 -71 z "},"|":{"ha":282,"x_min":0,"x_max":0,"o":"m 192 -178 b 185 -62 188 -139 186 -101 b 196 843 175 239 169 542 b 214 1042 203 908 210 975 b 218 1053 215 1043 217 1051 b 171 1108 221 1090 196 1108 b 119 1060 147 1108 122 1093 b 107 935 117 1044 110 950 b 79 422 92 764 79 593 b 83 138 79 328 81 232 b 94 -187 85 29 85 -79 b 144 -228 97 -208 121 -228 b 192 -178 171 -225 194 -204 z "},"}":{"ha":533,"x_min":0,"x_max":0,"o":"m 383 250 b 388 374 386 292 386 332 b 403 431 389 388 392 424 b 479 451 425 446 457 436 b 485 529 506 471 510 508 b 431 549 469 542 449 543 b 390 583 414 556 400 569 b 339 763 357 636 351 701 b 140 1018 319 867 271 1018 b 40 956 100 1018 61 999 b 36 943 39 951 38 946 b 82 869 17 908 43 867 b 129 907 101 872 121 889 b 132 919 129 910 131 918 b 150 921 135 922 144 922 b 200 875 172 917 189 896 b 263 647 240 807 244 724 b 328 506 274 597 294 546 b 333 499 331 504 335 501 b 290 376 303 468 293 419 b 257 92 286 281 288 182 b 219 28 249 68 240 43 b 204 24 215 25 210 24 b 150 50 186 24 164 38 b 118 61 142 57 129 61 b 86 49 106 61 94 57 b 82 -19 67 29 64 -1 b 204 -74 115 -53 161 -74 b 383 250 347 -74 376 142 z "},"~":{"ha":658,"x_min":0,"x_max":0,"o":"m 610 406 b 625 461 618 422 628 442 b 576 501 621 486 597 501 b 535 475 560 501 543 493 b 517 439 528 464 524 450 b 456 388 506 419 478 388 b 400 415 436 388 414 404 b 307 493 369 442 342 472 b 229 517 283 507 256 517 b 100 458 181 517 132 496 b 36 368 89 444 43 385 b 58 310 28 346 38 321 b 85 301 67 304 75 301 b 126 328 101 301 119 311 b 174 396 139 353 157 374 b 228 419 183 407 211 419 b 265 404 242 418 254 413 b 351 329 297 382 321 353 b 457 290 382 307 418 290 b 610 406 522 290 583 351 z "}," ":{"ha":347,"x_min":0,"x_max":0,"o":""},"¡":{"ha":235,"x_min":0,"x_max":0,"o":"m 144 725 b 101 750 138 740 118 750 b 60 676 64 750 38 707 b 103 653 72 660 88 653 b 144 725 135 653 164 685 z m 192 -211 b 181 -18 188 -147 183 -82 b 167 360 179 31 171 311 b 117 404 164 388 140 404 b 75 379 101 404 85 396 b 69 343 69 369 68 356 b 94 -221 75 275 89 -153 b 143 -261 97 -244 119 -261 b 192 -211 168 -261 193 -242 z "},"¢":{"ha":576,"x_min":0,"x_max":0,"o":"m 335 64 b 338 179 335 103 335 142 b 499 285 399 199 454 238 b 522 322 503 290 521 314 b 478 386 532 356 508 386 b 439 367 464 386 447 379 b 343 288 415 333 379 307 b 371 713 353 429 363 571 b 418 635 407 699 413 669 b 425 597 421 622 419 608 b 471 567 433 578 453 567 b 510 588 486 567 500 574 b 518 617 515 596 519 607 b 376 810 510 710 479 794 b 381 882 378 833 379 857 b 375 958 382 907 382 933 b 344 988 372 972 358 985 b 281 940 313 996 278 974 b 283 917 282 938 283 919 b 279 801 285 901 279 817 b 110 654 207 779 146 719 b 50 410 69 581 46 493 b 239 168 57 296 117 182 b 238 63 238 133 238 99 b 285 13 238 29 261 13 b 335 64 310 13 335 31 z m 163 340 b 149 458 149 378 144 419 b 272 692 158 544 194 644 b 244 265 269 640 247 318 b 163 340 199 275 181 297 z "},"£":{"ha":728,"x_min":0,"x_max":0,"o":"m 550 -12 b 686 140 608 4 681 79 b 638 196 689 171 665 196 b 592 163 618 196 599 182 b 543 90 585 132 567 110 b 490 79 528 79 508 76 b 388 118 454 83 421 104 b 272 140 350 132 311 143 b 290 425 300 232 294 331 b 425 444 317 426 404 431 b 390 533 469 476 443 544 b 286 522 356 528 321 524 b 286 763 279 601 269 683 b 367 886 300 825 308 853 b 438 907 388 899 413 907 b 519 857 471 907 506 888 b 528 806 526 842 529 822 b 529 769 526 793 525 781 b 575 738 536 749 556 738 b 622 779 596 738 622 756 b 622 843 625 800 625 821 b 442 1004 614 936 533 1004 b 204 833 339 1004 232 935 b 179 660 188 776 178 718 b 189 519 181 613 185 565 b 100 513 160 518 129 514 b 86 513 96 511 90 513 b 71 418 33 508 21 438 b 194 422 90 411 172 421 b 196 290 196 378 196 335 b 142 101 193 226 188 151 b 86 46 124 83 93 71 b 133 -15 78 13 104 -15 b 161 -7 143 -15 153 -12 b 268 43 194 14 229 36 b 336 33 290 46 314 40 b 460 -14 378 18 417 -4 b 500 -18 472 -17 486 -18 b 550 -12 517 -18 533 -17 z "},"¤":{"ha":544,"x_min":0,"x_max":0,"o":"m 464 272 b 407 357 461 292 421 343 b 456 514 439 401 457 460 b 443 578 456 536 451 558 b 492 625 451 585 486 617 b 454 699 510 657 489 694 b 424 692 443 699 432 697 b 385 656 410 681 397 668 b 296 683 358 674 326 683 b 211 661 264 683 238 675 b 190 679 204 667 197 674 b 108 719 169 699 136 719 b 82 711 99 719 90 717 b 75 633 54 693 50 654 b 114 617 86 625 101 624 b 138 596 118 615 133 599 b 89 453 108 554 89 503 b 103 378 89 428 93 401 b 50 322 90 368 54 338 b 96 258 42 288 65 258 b 142 279 113 258 132 267 b 147 289 142 281 147 289 b 161 300 149 292 160 299 b 257 272 189 282 224 272 b 332 293 283 274 308 282 b 379 232 351 276 364 253 b 417 215 388 222 404 215 b 464 272 446 215 469 242 z m 188 442 b 278 585 183 499 222 571 b 293 586 283 586 288 586 b 328 576 306 586 318 583 b 358 494 351 560 361 524 b 249 369 354 433 310 369 b 188 442 213 369 189 407 z "},"¥":{"ha":724,"x_min":0,"x_max":0,"o":"m 399 43 b 407 183 403 90 404 136 b 558 196 457 188 508 192 b 603 221 575 197 596 206 b 558 293 618 256 596 296 b 414 281 510 289 461 285 b 418 347 415 303 417 325 b 572 365 469 353 521 358 b 594 451 615 371 629 428 b 564 461 586 458 575 463 b 424 446 547 460 440 447 b 439 475 425 457 433 465 b 671 919 519 621 581 779 b 629 993 692 951 665 993 b 590 975 614 993 600 986 b 532 878 569 943 551 911 b 375 561 475 775 429 667 b 293 693 349 606 319 649 b 140 963 242 782 199 878 b 139 968 139 964 139 967 b 93 1000 131 989 113 1000 b 44 954 71 1000 47 983 b 65 900 43 935 54 917 b 217 632 89 867 197 667 b 326 456 231 608 311 478 b 324 438 328 453 326 438 b 238 432 296 436 267 435 b 144 417 219 431 158 426 b 133 343 119 399 113 364 b 171 326 143 333 157 325 b 211 333 185 328 197 332 b 321 340 225 335 306 339 b 315 271 318 317 317 294 b 131 249 306 269 138 253 b 149 158 92 225 103 163 b 207 160 168 157 188 158 b 310 172 242 164 275 168 b 303 51 307 132 306 92 b 353 1 300 24 326 1 b 399 43 375 1 396 21 z "},"¦":{"ha":264,"x_min":0,"x_max":0,"o":"m 172 529 b 179 935 172 665 168 800 b 207 1078 183 983 188 1035 b 153 1143 222 1113 189 1153 b 99 1056 115 1136 104 1089 b 76 814 82 976 79 896 b 75 529 74 719 75 625 b 125 479 76 496 100 479 b 172 529 149 479 174 496 z m 192 -158 b 188 -93 197 -137 192 -115 b 181 19 181 -57 179 -18 b 189 288 181 54 186 253 b 192 333 190 303 196 319 b 144 367 183 356 164 367 b 93 304 108 367 96 335 b 83 51 85 219 83 135 b 88 -86 82 6 82 -40 b 99 -150 90 -107 96 -128 b 147 -193 101 -178 124 -193 b 192 -158 167 -193 186 -182 z "},"§":{"ha":614,"x_min":0,"x_max":0,"o":"m 479 113 b 456 368 522 193 513 299 b 528 501 496 406 525 444 b 489 635 532 547 515 597 b 397 703 467 665 432 686 b 283 767 358 722 318 740 b 242 815 267 779 249 794 b 246 854 238 828 242 842 b 378 935 268 911 319 935 b 454 919 393 935 446 932 b 457 899 457 917 457 903 b 506 840 454 867 478 840 b 553 882 526 840 553 860 b 539 968 556 911 553 943 b 379 1032 514 1014 442 1032 b 242 994 333 1032 281 1021 b 185 725 149 933 107 807 b 126 607 157 690 132 650 b 151 500 121 569 129 533 b 322 356 194 439 260 396 b 408 235 369 324 404 297 b 286 85 414 158 360 85 b 147 181 226 85 176 133 b 121 213 139 192 133 206 b 97 219 113 217 104 219 b 51 153 65 219 36 186 b 285 -11 92 67 186 -11 b 479 113 372 -11 438 38 z m 247 536 b 222 590 233 551 219 571 b 261 665 226 618 243 643 b 372 606 297 643 336 628 b 414 572 388 597 404 588 b 429 492 428 550 438 518 b 382 432 422 468 401 449 b 247 536 335 464 285 494 z "},"¨":{"ha":332,"x_min":0,"x_max":0,"o":"m 103 814 b 129 897 143 821 157 869 b 90 910 121 907 106 910 b 49 900 75 910 60 907 b 65 810 10 876 21 818 b 103 814 78 807 90 813 z m 307 856 b 258 910 310 890 285 910 b 210 864 236 910 213 894 b 258 810 207 829 232 810 b 307 856 282 810 304 825 z "},"©":{"ha":1040,"x_min":0,"x_max":0,"o":"m 811 67 b 874 731 1015 229 1044 532 b 519 893 781 839 650 893 b 167 729 389 893 260 839 b 292 25 -22 508 38 168 b 522 -36 360 -14 442 -36 b 811 67 625 -36 732 1 z m 167 528 b 519 796 211 692 360 796 b 643 775 561 796 603 789 b 765 156 906 682 972 342 b 519 61 699 94 608 61 b 167 528 282 61 101 289 z m 661 222 b 672 285 679 235 685 267 b 629 308 663 300 644 308 b 606 301 621 308 613 306 b 472 243 574 281 510 243 b 428 288 451 243 433 271 b 413 474 400 343 397 413 b 549 594 431 542 472 594 b 596 565 571 594 589 588 b 601 494 601 543 600 518 b 650 453 603 469 628 453 b 682 465 663 453 674 457 b 699 503 692 475 700 490 b 685 604 696 538 697 572 b 550 690 664 663 608 690 b 325 518 440 690 356 621 b 338 251 296 429 300 338 b 475 144 361 193 410 144 b 661 222 536 144 614 188 z "},"«":{"ha":636,"x_min":0,"x_max":0,"o":"m 335 164 b 318 190 332 174 326 183 b 140 358 283 215 161 321 l 139 361 b 279 511 149 382 265 511 b 314 540 293 514 308 526 b 263 608 332 578 300 608 b 232 601 251 608 242 606 b 161 535 218 594 172 546 b 104 476 142 517 124 496 b 43 379 79 447 53 415 b 60 304 38 354 46 325 b 193 165 96 251 144 207 b 281 104 208 151 260 107 b 335 164 315 97 344 131 z m 592 153 b 575 178 590 163 583 172 b 397 347 540 203 418 310 b 396 350 397 347 396 349 b 536 500 406 371 522 500 b 572 528 550 503 565 514 b 518 597 589 567 557 597 b 489 590 508 597 499 594 b 363 464 469 581 383 488 b 300 367 336 436 310 404 b 317 293 294 343 303 314 b 450 154 353 239 401 196 b 538 93 465 140 517 96 b 592 153 572 86 601 118 z "},"¬":{"ha":585,"x_min":0,"x_max":0,"o":"m 524 219 b 536 263 533 231 539 249 b 532 276 535 265 532 274 b 521 510 528 354 539 433 b 390 608 506 579 458 606 b 83 607 346 611 126 613 b 32 526 46 601 19 560 b 79 493 40 506 60 493 b 110 507 90 493 101 497 b 117 513 111 508 115 513 b 357 513 197 515 278 514 b 418 506 369 513 408 513 b 426 489 421 503 425 493 b 436 256 443 413 428 333 b 489 204 439 225 464 204 b 524 219 501 204 514 210 z "},"­":{"ha":0,"x_min":0,"x_max":0,"o":""},"®":{"ha":576,"x_min":0,"x_max":0,"o":"m 524 828 b 288 1017 499 946 394 1017 b 125 953 231 1017 172 997 b 221 546 -12 826 42 597 b 290 535 244 539 268 535 b 524 828 438 535 557 672 z m 185 607 b 296 975 10 714 90 983 b 486 757 411 971 500 871 b 288 576 474 650 385 576 b 185 607 253 576 218 586 z m 242 643 b 243 669 246 650 243 661 b 246 757 243 681 244 746 b 331 683 253 736 314 697 b 356 667 335 681 351 668 b 376 701 378 658 393 686 b 290 765 367 711 301 757 b 358 843 319 785 351 810 b 347 903 364 864 361 888 b 299 924 336 917 317 924 b 214 893 278 924 228 910 b 211 872 210 888 208 879 b 203 650 208 839 197 683 b 224 633 204 639 214 633 b 242 643 231 633 238 636 z m 253 869 b 296 882 267 876 281 882 b 318 872 303 882 315 879 b 311 836 322 861 318 846 b 256 792 297 817 275 806 b 246 781 254 790 246 779 b 253 869 247 792 251 858 z "},"¯":{"ha":418,"x_min":0,"x_max":0,"o":"m 329 819 b 378 832 346 819 365 821 b 344 917 410 864 389 919 b 104 906 313 915 150 906 b 89 908 97 906 96 906 b 26 878 63 915 33 904 b 79 810 18 843 44 814 b 101 808 85 810 92 808 b 329 819 163 808 300 818 z "},"°":{"ha":449,"x_min":0,"x_max":0,"o":"m 392 753 b 388 928 407 810 407 872 b 261 1028 367 981 321 1028 b 190 1011 236 1029 211 1021 b 50 764 104 968 57 854 b 72 632 46 719 53 672 b 193 549 93 583 140 549 b 392 753 299 549 368 663 z m 149 707 b 197 890 138 769 157 842 b 254 931 211 910 231 929 b 288 911 268 932 282 922 b 306 836 301 889 306 861 b 194 646 304 782 264 646 b 149 707 168 646 154 679 z "},"±":{"ha":592,"x_min":0,"x_max":0,"o":"m 356 217 b 343 372 354 268 347 321 b 471 378 361 374 454 379 b 482 375 472 378 481 375 b 518 463 532 371 558 432 b 444 476 504 472 476 476 b 339 469 404 476 361 471 b 350 596 339 489 343 576 b 306 664 363 631 339 664 b 251 597 267 664 254 629 b 242 460 246 551 242 506 b 124 449 203 456 163 451 b 114 451 119 449 117 450 b 96 454 107 454 101 454 b 69 360 49 454 22 388 b 119 351 79 354 97 351 b 247 363 164 351 222 361 b 258 233 249 347 257 249 b 307 167 258 201 267 167 b 356 217 332 167 357 185 z m 307 21 b 481 31 331 24 456 32 b 490 28 482 31 489 28 b 524 118 543 24 567 88 b 499 126 515 122 507 126 b 408 126 468 129 438 128 b 132 101 315 121 224 107 b 122 104 129 101 126 103 b 104 107 115 107 110 107 b 78 13 57 107 31 40 b 124 4 92 6 108 3 b 307 21 147 4 283 19 z "},"²":{"ha":421,"x_min":0,"x_max":0,"o":"m 138 661 b 314 675 196 669 256 672 b 364 689 331 675 351 676 b 368 758 383 708 388 739 b 331 775 358 768 344 775 b 219 767 293 771 256 769 b 343 940 268 818 317 874 b 349 1060 357 978 360 1021 b 231 1154 333 1117 289 1154 b 72 1068 169 1154 104 1119 b 61 993 58 1047 51 1018 b 104 961 69 971 86 961 b 154 1010 128 961 151 979 b 154 1018 156 1011 154 1017 b 189 1044 157 1028 179 1040 b 226 1057 200 1051 214 1057 b 242 1054 232 1057 238 1056 b 260 1017 251 1049 258 1028 b 251 975 260 1003 257 988 b 183 869 238 936 211 901 b 56 747 143 826 97 789 b 72 658 28 719 36 672 b 93 656 79 656 86 656 b 138 661 107 656 124 660 z "},"³":{"ha":406,"x_min":0,"x_max":0,"o":"m 350 765 b 364 842 363 788 369 815 b 294 939 356 881 328 917 b 321 999 307 957 317 976 b 283 1118 329 1039 314 1090 b 193 1147 260 1140 225 1147 b 79 1108 153 1147 108 1138 b 110 1021 49 1076 65 1024 b 144 1032 122 1019 136 1024 b 154 1042 146 1033 151 1042 b 199 1050 164 1046 183 1050 b 219 1044 207 1050 215 1049 b 226 1028 224 1042 225 1032 b 204 986 228 1013 217 994 b 139 956 185 972 154 974 b 161 878 118 929 128 886 b 244 856 189 871 222 874 b 269 821 253 850 269 832 b 235 788 268 810 246 794 b 171 772 219 779 193 772 b 126 785 153 772 138 776 b 101 801 118 790 111 799 b 85 804 96 804 90 804 b 36 751 57 804 33 782 b 168 675 43 700 122 675 b 350 765 239 675 311 701 z "},"´":{"ha":286,"x_min":0,"x_max":0,"o":"m 113 769 b 217 894 131 786 203 875 b 231 913 219 897 228 910 b 228 999 264 932 263 982 b 197 1001 218 1003 207 1004 b 142 957 174 996 156 975 b 50 844 114 917 82 881 b 33 821 44 838 36 831 b 81 757 24 785 50 757 b 113 769 92 757 103 761 z "},"¶":{"ha":696,"x_min":0,"x_max":0,"o":"m 551 -15 b 554 46 563 3 556 25 b 557 357 547 149 554 253 b 578 917 564 543 558 731 b 617 915 590 913 604 911 b 632 999 651 928 660 974 b 439 1033 603 1022 483 1033 b 94 882 318 1033 174 978 b 129 521 13 778 32 611 b 265 451 167 486 217 464 b 267 322 268 435 267 340 b 286 13 268 219 272 115 b 336 -33 289 -15 311 -33 b 369 -19 347 -33 360 -29 b 383 17 378 -11 385 3 b 382 29 383 21 382 25 b 364 367 372 78 363 318 b 365 440 364 392 361 417 b 376 575 372 485 374 529 b 392 883 378 618 383 842 b 397 893 392 886 397 892 b 403 926 403 903 406 915 b 401 935 401 929 399 933 b 482 935 428 938 456 936 b 460 335 463 735 468 535 b 456 61 456 243 450 153 b 468 -15 457 47 461 -3 b 510 -39 478 -32 493 -39 b 551 -15 526 -39 543 -32 z "},"·":{"ha":153,"x_min":0,"x_max":0,"o":"m 114 435 b 81 519 144 467 126 515 b 76 519 79 519 78 519 b 31 493 60 519 39 510 b 58 422 18 465 28 431 b 74 421 64 421 69 421 b 114 435 89 421 104 425 z "},"¸":{"ha":153,"x_min":0,"x_max":0,"o":"m 224 -242 b 258 -128 247 -210 261 -167 b 196 -44 254 -87 235 -58 b 113 -33 169 -33 140 -33 b 133 4 119 -21 132 -10 b 85 60 135 38 111 60 b 51 47 74 60 61 57 b -17 -69 35 32 -15 -53 b 0 -119 -21 -86 -14 -108 b 44 -132 11 -129 29 -132 b 161 -135 63 -132 143 -129 b 144 -185 164 -153 157 -172 b 78 -217 126 -201 101 -212 b 86 -312 18 -226 29 -312 b 224 -242 126 -312 200 -274 z "},"¹":{"ha":297,"x_min":0,"x_max":0,"o":"m 219 696 b 243 739 233 706 244 722 b 253 982 236 819 240 901 b 267 1101 256 1001 271 1082 b 215 1144 263 1126 239 1144 b 199 1140 210 1144 204 1143 b 150 1104 181 1132 165 1117 b 54 1039 119 1079 88 1058 b 58 951 19 1019 21 969 b 96 951 69 947 85 946 b 156 988 104 956 147 982 b 146 729 143 903 138 815 b 194 688 149 706 172 688 b 219 696 203 688 213 690 z "},"»":{"ha":638,"x_min":0,"x_max":0,"o":"m 579 307 b 596 361 589 324 594 342 b 579 415 596 379 589 399 b 413 596 558 453 447 572 b 371 608 401 604 386 608 b 342 600 361 608 350 606 b 363 511 303 574 315 515 b 497 361 388 488 483 392 b 318 189 469 310 364 221 b 301 164 310 183 304 174 b 349 103 293 132 319 103 b 579 307 393 103 546 254 z m 322 296 b 338 349 332 313 338 331 b 322 404 339 368 332 388 b 156 585 301 440 190 560 b 114 597 144 593 129 597 b 85 589 104 597 93 594 b 106 499 46 563 58 503 b 240 350 131 476 226 381 b 60 178 213 299 106 210 b 44 153 53 172 47 163 b 92 92 36 121 63 92 b 322 296 136 92 289 243 z "},"¼":{"ha":783,"x_min":0,"x_max":0,"o":"m 156 0 b 183 33 165 11 175 22 b 356 304 246 121 301 213 b 482 522 399 376 443 449 b 625 807 532 615 576 713 b 679 921 643 844 664 882 b 696 956 685 932 693 943 b 647 1013 701 988 675 1013 b 615 1000 636 1013 625 1008 b 569 913 593 976 585 942 b 390 556 547 868 414 600 b 200 233 367 514 225 274 b 106 92 169 185 139 136 b 94 -7 57 83 51 18 b 121 -14 103 -11 111 -14 b 156 0 133 -14 146 -10 z m 242 574 b 257 603 249 582 256 592 b 264 831 264 678 261 754 b 271 943 265 844 271 929 b 218 1011 271 978 258 1011 b 183 997 206 1011 193 1007 b 79 922 153 967 115 944 b 60 910 72 918 65 915 b 56 842 40 892 36 861 b 101 826 67 831 86 822 b 169 864 126 833 147 850 b 160 610 167 832 163 642 b 210 561 158 582 185 561 b 242 574 222 561 233 565 z m 669 53 b 665 126 667 76 667 101 b 679 128 665 131 675 129 b 697 224 743 115 761 211 b 531 215 672 228 554 217 b 624 386 553 276 586 333 b 635 394 624 389 633 393 b 650 424 642 403 649 414 b 600 479 653 460 628 479 b 551 453 582 479 564 471 b 428 179 513 397 417 246 b 476 125 432 154 451 133 b 568 121 506 115 538 118 b 572 44 569 96 569 69 b 622 3 575 21 599 0 b 669 53 649 4 671 25 z "},"½":{"ha":804,"x_min":0,"x_max":0,"o":"m 156 0 b 183 33 165 11 175 22 b 356 304 246 121 301 213 b 482 522 399 376 443 449 b 625 807 532 615 576 713 b 679 921 643 844 664 882 b 696 956 685 932 693 943 b 647 1013 701 988 675 1013 b 615 1000 636 1013 625 1008 b 569 913 593 976 585 942 b 390 556 547 868 414 600 b 200 233 367 514 225 274 b 106 92 169 185 139 136 b 94 -7 57 83 51 18 b 121 -14 103 -11 111 -14 b 156 0 133 -14 146 -10 z m 242 574 b 257 603 249 582 256 592 b 264 831 264 678 261 754 b 271 943 265 844 271 929 b 218 1011 271 978 258 1011 b 183 997 206 1011 193 1007 b 79 922 153 967 115 944 b 60 910 72 918 65 915 b 56 842 40 892 36 861 b 101 826 67 831 86 822 b 169 864 126 833 147 850 b 160 610 167 832 163 642 b 210 561 158 582 185 561 b 242 574 222 561 233 565 z m 700 -8 b 751 61 739 -12 768 25 b 724 86 746 74 735 83 b 585 90 701 92 608 92 b 722 346 643 156 715 254 b 658 465 724 396 701 438 b 597 483 640 476 618 483 b 447 383 542 481 476 428 b 440 294 432 357 433 322 b 492 254 447 272 468 254 b 536 321 525 254 551 290 b 533 336 535 325 531 332 b 599 385 544 350 579 385 b 625 346 614 385 626 367 b 531 175 619 294 564 214 b 439 69 518 160 449 88 b 443 6 429 51 429 22 b 497 -15 456 -8 478 -15 b 649 -6 549 -14 599 -6 b 700 -8 667 -6 683 -6 z "},"¾":{"ha":792,"x_min":0,"x_max":0,"o":"m 164 0 b 192 33 174 11 183 22 b 364 304 254 121 310 213 b 490 522 407 376 450 449 b 633 807 540 615 585 713 b 688 921 651 844 672 882 b 704 956 692 932 701 943 b 656 1013 710 988 683 1013 b 624 1000 644 1013 633 1008 b 578 913 600 976 592 942 b 397 556 556 868 421 600 b 207 233 375 514 233 274 b 114 92 178 185 147 136 b 103 -7 65 83 60 18 b 129 -14 111 -11 119 -14 b 164 0 142 -14 154 -10 z m 676 53 b 674 126 675 76 675 101 b 688 128 674 131 683 129 b 704 224 751 115 769 211 b 538 215 681 228 563 217 b 631 386 561 276 594 333 b 643 394 632 389 642 393 b 658 424 650 403 657 414 b 608 479 661 460 636 479 b 558 453 590 479 571 471 b 436 179 521 397 424 246 b 485 125 440 154 458 133 b 576 121 514 115 546 118 b 581 44 578 96 578 69 b 629 3 582 21 606 0 b 676 53 657 4 679 25 z m 336 575 b 317 801 383 647 386 751 b 363 878 338 822 356 849 b 301 1004 375 924 344 983 b 249 1017 285 1011 267 1017 b 86 931 196 1017 104 985 b 133 864 74 897 100 864 b 171 882 147 864 161 871 b 178 894 171 883 176 893 b 246 919 185 906 231 919 b 258 917 250 919 256 919 b 265 890 268 910 271 901 b 211 844 253 869 232 854 b 151 813 192 835 165 829 b 164 739 132 789 138 754 b 213 732 178 731 196 731 b 263 721 224 732 254 729 b 247 619 288 694 272 646 b 221 608 242 611 231 608 b 142 615 194 607 167 608 b 103 626 128 618 117 626 b 72 540 57 626 38 569 b 199 511 97 519 150 511 b 336 575 258 511 300 522 z "},"¿":{"ha":465,"x_min":0,"x_max":0,"o":"m 413 685 b 364 719 406 707 385 719 b 319 694 346 719 329 711 b 353 619 303 664 319 625 b 363 618 356 619 360 618 b 413 685 397 618 424 650 z m 501 -126 b 531 -79 515 -114 528 -97 b 483 -19 538 -42 511 -19 b 438 -50 465 -19 447 -29 b 281 -154 421 -86 315 -143 b 194 -172 254 -164 224 -172 b 161 -168 183 -172 172 -171 b 111 -36 106 -154 94 -90 b 292 169 139 68 207 114 b 388 258 328 193 365 219 b 414 406 414 300 417 356 b 407 464 413 415 411 454 b 361 494 397 483 379 494 b 313 444 335 494 313 471 b 317 360 315 415 318 388 b 297 296 315 338 311 313 b 221 239 276 272 247 256 b 60 86 156 199 99 153 b 96 -246 -11 -25 -21 -183 b 194 -269 125 -262 160 -269 b 501 -126 296 -269 429 -201 z "},"À":{"ha":663,"x_min":0,"x_max":0,"o":"m 511 1121 b 499 1149 510 1131 506 1142 b 317 1307 471 1176 351 1290 b 279 1313 306 1311 292 1315 b 272 1217 232 1300 226 1239 b 279 1215 274 1217 276 1217 b 431 1079 335 1175 382 1126 b 461 1067 440 1071 450 1067 b 511 1121 488 1067 514 1090 z m 122 49 b 169 333 129 144 146 240 b 489 369 208 336 450 365 b 513 47 492 328 508 88 b 563 6 515 22 539 6 b 593 18 574 6 585 10 b 610 56 603 28 611 42 b 581 439 599 183 592 311 b 551 736 572 539 564 638 b 500 947 546 792 535 901 b 436 979 483 967 461 979 b 268 822 368 979 300 875 b 93 422 192 697 135 563 b 75 374 79 413 71 390 b 78 364 75 372 78 365 b 26 67 51 267 35 167 b 28 1 25 54 24 11 b 74 -31 35 -19 54 -31 b 122 49 121 -31 122 14 z m 429 874 b 481 465 450 815 475 526 b 199 433 386 456 293 444 b 429 874 243 569 328 772 z "},"Á":{"ha":660,"x_min":0,"x_max":0,"o":"m 436 1063 b 478 1108 443 1068 471 1101 b 601 1225 494 1125 582 1211 b 621 1243 610 1229 617 1236 b 581 1317 640 1276 614 1317 b 561 1313 574 1317 568 1315 b 392 1158 528 1297 418 1186 b 363 1104 378 1144 363 1125 b 411 1056 363 1076 386 1056 b 436 1063 419 1056 429 1057 z m 122 49 b 169 333 129 144 146 240 b 489 369 208 336 450 365 b 513 47 492 328 508 88 b 563 6 515 22 539 6 b 593 18 574 6 585 10 b 610 56 603 28 611 42 b 581 439 599 183 592 311 b 551 736 572 539 564 638 b 500 947 546 792 535 901 b 436 979 483 967 461 979 b 268 822 368 979 300 875 b 93 422 192 697 135 563 b 75 374 79 413 71 390 b 78 364 75 372 78 365 b 26 67 51 267 35 167 b 28 1 25 54 24 11 b 74 -31 35 -19 54 -31 b 122 49 121 -31 122 14 z m 429 874 b 481 465 450 815 475 526 b 199 433 386 456 293 444 b 429 874 243 569 328 772 z "},"Â":{"ha":663,"x_min":0,"x_max":0,"o":"m 275 1057 b 304 1081 288 1060 299 1068 b 325 1115 310 1092 317 1104 b 397 1206 349 1146 372 1176 b 467 1107 421 1174 442 1139 b 513 1083 478 1092 496 1083 b 544 1096 524 1083 536 1088 b 547 1164 563 1115 567 1146 b 442 1301 507 1206 485 1263 b 399 1318 429 1313 414 1318 b 351 1299 382 1318 365 1311 b 215 1119 322 1271 229 1158 b 275 1057 203 1082 236 1046 z m 122 49 b 169 333 129 144 146 240 b 489 369 208 336 450 365 b 513 47 492 328 508 88 b 563 6 515 22 539 6 b 593 18 574 6 585 10 b 610 56 603 28 611 42 b 581 439 599 183 592 311 b 551 736 572 539 564 638 b 500 947 546 792 535 901 b 436 979 483 967 461 979 b 268 822 368 979 300 875 b 93 422 192 697 135 563 b 75 374 79 413 71 390 b 78 364 75 372 78 365 b 26 67 51 267 35 167 b 28 1 25 54 24 11 b 74 -31 35 -19 54 -31 b 122 49 121 -31 122 14 z m 429 874 b 481 465 450 815 475 526 b 199 433 386 456 293 444 b 429 874 243 569 328 772 z "},"Ã":{"ha":661,"x_min":0,"x_max":0,"o":"m 643 1211 b 596 1269 650 1240 624 1269 b 553 1243 581 1269 560 1257 b 514 1183 543 1222 535 1194 b 504 1188 511 1182 507 1186 b 449 1244 496 1194 456 1238 b 346 1289 419 1272 386 1289 b 218 1214 286 1289 250 1261 b 186 1149 204 1194 190 1172 b 217 1089 181 1124 193 1094 b 232 1088 222 1088 226 1088 b 278 1119 253 1088 272 1099 b 282 1133 279 1121 281 1132 b 314 1181 285 1142 307 1174 b 344 1192 321 1188 333 1192 b 363 1188 351 1192 357 1190 b 399 1157 376 1181 388 1168 b 463 1099 418 1136 438 1114 b 513 1085 476 1090 494 1085 b 643 1211 579 1085 626 1153 z m 122 49 b 169 333 129 144 146 240 b 489 369 208 336 450 365 b 513 47 492 328 508 88 b 563 6 515 22 539 6 b 593 18 574 6 585 10 b 610 56 603 28 611 42 b 581 439 599 183 592 311 b 551 736 572 539 564 638 b 500 947 546 792 535 901 b 436 979 483 967 461 979 b 268 822 368 979 300 875 b 93 422 192 697 135 563 b 75 374 79 413 71 390 b 78 364 75 372 78 365 b 26 67 51 267 35 167 b 28 1 25 54 24 11 b 74 -31 35 -19 54 -31 b 122 49 121 -31 122 14 z m 429 874 b 481 465 450 815 475 526 b 199 433 386 456 293 444 b 429 874 243 569 328 772 z "},"Ä":{"ha":663,"x_min":0,"x_max":0,"o":"m 549 1153 b 528 1236 576 1181 565 1225 b 460 1196 503 1242 467 1221 b 506 1132 451 1164 472 1132 b 549 1153 521 1132 538 1140 z m 363 1174 b 301 1217 354 1201 329 1224 b 306 1117 243 1201 247 1126 b 314 1117 308 1117 311 1117 b 363 1174 344 1117 371 1144 z m 122 49 b 169 333 129 144 146 240 b 489 369 208 336 450 365 b 513 47 492 328 508 88 b 563 6 515 22 539 6 b 593 18 574 6 585 10 b 610 56 603 28 611 42 b 581 439 599 183 592 311 b 551 736 572 539 564 638 b 500 947 546 792 535 901 b 436 979 483 967 461 979 b 268 822 368 979 300 875 b 93 422 192 697 135 563 b 75 374 79 413 71 390 b 78 364 75 372 78 365 b 26 67 51 267 35 167 b 28 1 25 54 24 11 b 74 -31 35 -19 54 -31 b 122 49 121 -31 122 14 z m 429 874 b 481 465 450 815 475 526 b 199 433 386 456 293 444 b 429 874 243 569 328 772 z "},"Å":{"ha":663,"x_min":0,"x_max":0,"o":"m 521 1086 b 538 1269 561 1126 564 1219 b 489 1319 528 1290 508 1307 b 476 1326 485 1322 479 1324 b 431 1340 464 1336 447 1340 b 332 1290 386 1340 361 1325 b 289 1161 303 1256 285 1207 b 432 1051 294 1090 363 1051 b 521 1086 468 1051 493 1061 z m 426 1149 b 389 1163 417 1150 393 1153 b 407 1228 378 1181 393 1211 b 433 1240 414 1236 424 1249 b 451 1224 439 1235 447 1232 b 457 1192 458 1215 458 1203 b 450 1153 457 1182 456 1158 b 426 1149 446 1149 432 1149 z m 122 49 b 169 333 129 144 146 240 b 489 369 208 336 450 365 b 513 47 492 328 508 88 b 563 6 515 22 539 6 b 593 18 574 6 585 10 b 610 56 603 28 611 42 b 581 439 599 183 592 311 b 551 736 572 539 564 638 b 500 947 546 792 535 901 b 436 979 483 967 461 979 b 268 822 368 979 300 875 b 93 422 192 697 135 563 b 75 374 79 413 71 390 b 78 364 75 372 78 365 b 26 67 51 267 35 167 b 28 1 25 54 24 11 b 74 -31 35 -19 54 -31 b 122 49 121 -31 122 14 z m 429 874 b 481 465 450 815 475 526 b 199 433 386 456 293 444 b 429 874 243 569 328 772 z "},"Æ":{"ha":1075,"x_min":0,"x_max":0,"o":"m 131 14 b 133 68 132 21 133 61 b 163 335 140 157 150 247 b 497 372 206 338 454 368 b 494 33 497 260 494 146 b 544 -15 494 3 519 -15 b 592 43 581 -15 592 13 b 758 -6 632 -3 701 -6 b 1029 53 843 -6 953 15 b 1057 119 1054 64 1069 93 b 1011 150 1049 138 1031 150 b 988 142 1003 150 994 147 b 976 135 985 142 978 136 b 758 92 907 108 833 92 b 664 108 742 92 675 93 b 643 165 654 126 647 146 b 615 467 617 263 614 365 b 825 513 685 482 754 506 b 854 593 863 515 881 565 b 817 608 844 603 829 610 b 619 567 750 603 685 583 b 642 881 625 672 632 776 b 843 908 699 900 783 908 b 960 894 882 908 922 904 b 1017 953 993 886 1026 919 b 985 989 1013 968 1000 985 b 851 1004 942 1000 897 1004 b 551 926 785 1004 585 999 b 538 978 550 935 542 969 b 493 1001 528 994 511 1001 b 279 910 417 1001 333 963 b 65 347 140 778 90 528 b 35 13 58 299 31 63 b 85 -28 38 -11 61 -28 b 131 14 106 -28 131 -8 z m 458 900 b 497 469 489 758 496 614 b 178 433 390 458 285 446 b 458 900 206 589 274 863 z "},"Ç":{"ha":617,"x_min":0,"x_max":0,"o":"m 288 -300 b 343 -269 307 -294 326 -283 b 407 -133 386 -237 410 -187 b 394 -82 406 -117 403 -97 b 351 -49 385 -67 369 -54 b 260 -43 322 -40 290 -43 b 271 -8 261 -39 269 -12 b 276 -3 271 -8 275 -3 b 424 43 326 -7 382 11 b 565 238 488 90 533 164 b 543 299 575 260 564 289 b 519 304 536 301 528 304 b 478 279 503 304 486 296 b 294 93 444 210 382 93 b 167 240 226 93 183 186 b 151 519 142 331 139 428 b 400 897 167 642 240 897 b 471 851 431 897 457 885 b 463 731 486 814 478 768 b 507 664 449 699 475 664 b 550 690 524 664 543 675 b 485 974 597 789 582 924 b 394 994 457 988 426 994 b 104 729 249 994 150 851 b 47 413 67 629 47 519 b 183 36 47 288 76 118 b 156 -46 179 25 160 -35 b 204 -133 146 -83 167 -122 b 310 -140 238 -142 275 -139 b 214 -212 310 -196 260 -212 b 179 -219 201 -212 189 -214 b 179 -303 147 -237 147 -285 b 219 -310 188 -308 203 -310 b 288 -300 244 -310 274 -306 z "},"È":{"ha":622,"x_min":0,"x_max":0,"o":"m 413 1153 b 286 1275 372 1194 332 1238 b 279 1285 283 1278 282 1282 b 243 1301 268 1296 256 1301 b 201 1228 210 1301 181 1265 b 254 1174 213 1206 236 1192 b 346 1083 286 1144 315 1114 b 372 1072 353 1076 363 1074 b 413 1153 417 1069 444 1122 z m 578 47 b 607 114 603 58 618 89 b 561 144 597 133 579 144 b 536 138 553 144 544 143 b 525 131 535 136 528 131 b 299 86 453 103 376 86 b 192 161 217 86 213 89 b 165 461 165 258 163 361 b 374 507 235 476 303 500 b 403 588 411 511 429 561 b 365 604 393 597 379 606 b 168 563 299 597 233 578 b 190 875 174 667 181 771 b 394 903 242 894 340 903 b 508 890 433 903 471 900 b 567 947 542 882 575 915 b 533 983 563 963 550 979 b 400 999 490 994 446 999 b 99 919 326 999 125 989 b 90 843 96 908 92 856 b 67 379 78 689 65 535 b 136 44 68 294 83 117 b 314 -11 172 -7 256 -11 b 578 47 401 -11 499 11 z "},"É":{"ha":622,"x_min":0,"x_max":0,"o":"m 342 1100 b 406 1168 350 1108 397 1158 b 450 1218 421 1185 435 1203 b 465 1264 463 1231 469 1249 b 408 1303 458 1290 435 1310 b 365 1271 392 1297 376 1285 b 272 1168 336 1235 304 1201 b 272 1104 256 1151 256 1121 b 311 1088 283 1093 297 1088 b 342 1100 322 1088 333 1092 z m 578 47 b 607 114 603 58 618 89 b 561 144 597 133 579 144 b 536 138 553 144 544 143 b 525 131 535 136 528 131 b 299 86 453 103 376 86 b 192 161 217 86 213 89 b 165 461 165 258 163 361 b 374 507 235 476 303 500 b 403 588 411 511 429 561 b 365 604 393 597 379 606 b 168 563 299 597 233 578 b 190 875 174 667 181 771 b 394 903 242 894 340 903 b 508 890 433 903 471 900 b 567 947 542 882 575 915 b 533 983 563 963 550 979 b 400 999 490 994 446 999 b 99 919 326 999 125 989 b 90 843 96 908 92 856 b 67 379 78 689 65 535 b 136 44 68 294 83 117 b 314 -11 172 -7 256 -11 b 578 47 401 -11 499 11 z "},"Ê":{"ha":622,"x_min":0,"x_max":0,"o":"m 232 1088 b 314 1188 244 1099 303 1175 b 375 1110 325 1175 369 1125 b 421 1078 382 1092 401 1078 b 467 1146 453 1078 479 1111 b 360 1282 456 1175 382 1261 b 317 1301 349 1294 333 1301 b 265 1278 297 1301 279 1292 b 154 1140 244 1258 168 1168 b 200 1075 143 1108 168 1075 b 232 1088 211 1075 225 1079 z m 578 47 b 607 114 603 58 618 89 b 561 144 597 133 579 144 b 536 138 553 144 544 143 b 525 131 535 136 528 131 b 299 86 453 103 376 86 b 192 161 217 86 213 89 b 165 461 165 258 163 361 b 374 507 235 476 303 500 b 403 588 411 511 429 561 b 365 604 393 597 379 606 b 168 563 299 597 233 578 b 190 875 174 667 181 771 b 394 903 242 894 340 903 b 508 890 433 903 471 900 b 567 947 542 882 575 915 b 533 983 563 963 550 979 b 400 999 490 994 446 999 b 99 919 326 999 125 989 b 90 843 96 908 92 856 b 67 379 78 689 65 535 b 136 44 68 294 83 117 b 314 -11 172 -7 256 -11 b 578 47 401 -11 499 11 z "},"Ë":{"ha":622,"x_min":0,"x_max":0,"o":"m 451 1206 b 419 1215 442 1213 431 1215 b 372 1185 399 1215 381 1206 b 425 1117 360 1151 389 1114 b 451 1206 471 1121 489 1178 z m 279 1188 b 233 1217 269 1207 251 1217 b 194 1199 218 1217 204 1211 b 226 1118 169 1168 188 1124 b 236 1117 229 1118 232 1117 b 279 1188 271 1117 294 1154 z m 578 47 b 607 114 603 58 618 89 b 561 144 597 133 579 144 b 536 138 553 144 544 143 b 525 131 535 136 528 131 b 299 86 453 103 376 86 b 192 161 217 86 213 89 b 165 461 165 258 163 361 b 374 507 235 476 303 500 b 403 588 411 511 429 561 b 365 604 393 597 379 606 b 168 563 299 597 233 578 b 190 875 174 667 181 771 b 394 903 242 894 340 903 b 508 890 433 903 471 900 b 567 947 542 882 575 915 b 533 983 563 963 550 979 b 400 999 490 994 446 999 b 99 919 326 999 125 989 b 90 843 96 908 92 856 b 67 379 78 689 65 535 b 136 44 68 294 83 117 b 314 -11 172 -7 256 -11 b 578 47 401 -11 499 11 z "},"Ì":{"ha":267,"x_min":0,"x_max":0,"o":"m 222 1147 b 81 1297 175 1197 131 1250 b 58 1314 74 1304 67 1310 b -7 1264 25 1325 -10 1299 b 44 1197 -4 1236 25 1218 b 154 1078 82 1158 117 1117 b 182 1067 161 1071 172 1067 b 222 1147 225 1063 253 1115 z m 167 10 b 189 53 179 19 190 36 b 169 410 179 171 171 290 b 206 935 169 585 182 761 b 188 983 207 951 201 974 b 157 993 178 990 168 993 b 110 951 135 993 113 978 b 93 44 69 651 63 346 b 142 3 94 19 119 3 b 167 10 151 3 160 4 z "},"Í":{"ha":265,"x_min":0,"x_max":0,"o":"m 142 1067 b 299 1231 160 1092 276 1208 b 258 1311 328 1263 301 1314 b 229 1299 247 1310 236 1306 b 72 1136 208 1278 92 1158 b 67 1065 54 1115 49 1083 b 106 1049 78 1054 92 1049 b 142 1067 119 1049 133 1054 z m 164 10 b 188 53 178 19 189 36 b 168 410 176 171 168 290 b 203 935 167 585 181 761 b 186 983 206 951 200 974 b 156 993 176 990 167 993 b 107 951 133 993 111 978 b 90 44 68 651 61 346 b 140 3 93 19 117 3 b 164 10 149 3 157 4 z "},"Î":{"ha":267,"x_min":0,"x_max":0,"o":"m 15 1054 b 140 1189 36 1068 121 1172 b 228 1086 157 1174 217 1106 b 269 1063 238 1071 253 1063 b 314 1090 288 1063 306 1072 b 318 1121 318 1100 319 1111 b 139 1290 304 1171 194 1290 b 53 1238 101 1290 75 1264 b -49 1125 39 1222 -36 1142 b -15 1047 -71 1093 -53 1050 b 15 1054 -4 1046 7 1047 z m 165 10 b 188 53 178 19 189 36 b 169 410 178 171 169 290 b 204 935 168 585 181 761 b 186 983 207 951 200 974 b 156 993 176 990 167 993 b 108 951 133 993 113 978 b 92 44 68 651 61 346 b 140 3 93 19 118 3 b 165 10 150 3 158 4 z "},"Ï":{"ha":265,"x_min":0,"x_max":0,"o":"m 64 1118 b 86 1200 97 1129 110 1176 b 50 1215 75 1211 63 1215 b 6 1188 32 1215 14 1206 b 47 1115 -11 1151 13 1115 b 64 1118 53 1115 58 1115 z m 276 1114 b 263 1196 306 1138 297 1183 b 243 1200 256 1199 250 1200 b 193 1142 214 1200 189 1174 b 243 1101 197 1117 219 1101 b 276 1114 254 1101 267 1106 z m 164 10 b 188 53 178 19 189 36 b 168 410 176 171 169 290 b 204 935 168 585 181 761 b 186 983 206 951 200 974 b 156 993 176 990 167 993 b 108 951 133 993 111 978 b 90 44 68 651 61 346 b 140 3 93 19 117 3 b 164 10 149 3 157 4 z "},"Ð":{"ha":728,"x_min":0,"x_max":0,"o":"m 225 3 b 686 511 479 43 660 261 b 638 804 696 610 683 717 b 289 1006 569 940 436 1006 b 190 997 256 1006 222 1003 b 151 964 174 994 156 981 b 139 910 149 957 140 917 b 124 557 135 864 125 603 b 65 554 115 556 74 556 b 43 469 26 543 13 494 b 122 460 64 451 96 458 b 122 226 121 382 121 304 b 131 88 124 181 125 133 b 144 3 100 65 108 13 b 181 -1 156 0 168 -1 b 225 3 194 -1 210 0 z m 219 226 b 219 464 218 306 218 385 b 389 481 247 465 363 468 b 361 574 443 506 419 583 b 221 561 315 565 268 564 b 238 906 222 608 229 858 b 286 908 254 907 269 908 b 539 781 389 908 485 872 b 590 524 585 707 600 611 b 228 101 565 322 433 143 b 219 226 222 143 221 185 z "},"Ñ":{"ha":799,"x_min":0,"x_max":0,"o":"m 338 1138 l 338 1140 b 379 1188 346 1154 364 1186 b 389 1182 382 1188 386 1183 b 418 1144 393 1176 414 1150 b 478 1100 435 1125 454 1107 b 513 1093 489 1096 501 1093 b 636 1211 579 1093 615 1157 b 592 1281 650 1247 624 1281 b 544 1247 571 1281 551 1267 b 525 1207 540 1233 533 1219 b 511 1190 524 1203 515 1192 b 504 1194 510 1190 506 1193 b 449 1258 483 1214 469 1239 b 378 1285 428 1276 404 1285 b 240 1156 315 1285 253 1214 b 244 1118 238 1143 240 1129 b 289 1089 254 1099 271 1089 b 338 1138 313 1089 335 1107 z m 651 -4 b 675 31 663 3 672 17 b 726 492 706 182 721 338 b 703 965 733 650 731 810 b 657 1006 699 993 678 1006 b 607 947 629 1006 600 985 b 632 594 628 831 633 713 b 604 199 631 463 622 329 b 219 968 486 460 333 704 b 171 1001 210 989 190 1001 b 135 985 157 1001 144 996 b 122 946 126 974 125 960 b 71 503 92 800 76 651 b 94 43 64 350 68 194 b 142 1 100 15 121 1 b 190 61 169 1 197 24 b 165 403 171 174 165 289 b 194 792 167 533 175 664 b 571 22 319 535 472 290 b 611 -10 578 7 593 -8 b 651 -4 624 -11 639 -11 z "},"Ò":{"ha":778,"x_min":0,"x_max":0,"o":"m 460 1175 b 368 1272 444 1186 381 1258 b 310 1313 351 1289 333 1308 b 254 1253 275 1318 246 1286 b 271 1226 257 1242 263 1232 b 407 1094 324 1190 356 1131 b 436 1088 415 1089 426 1086 b 460 1175 481 1092 496 1149 z m 683 256 b 700 736 743 404 749 583 b 579 932 676 808 638 882 b 410 1001 535 975 472 1001 b 193 897 326 1001 250 956 b 68 656 131 831 90 743 b 72 281 38 533 39 400 b 368 -8 108 143 213 -8 b 683 256 521 -8 629 126 z m 156 349 b 194 724 131 472 143 610 b 410 906 231 806 311 906 b 622 646 536 906 601 749 b 585 272 647 522 636 386 b 364 89 546 186 468 89 b 156 349 243 89 175 249 z "},"Ó":{"ha":778,"x_min":0,"x_max":0,"o":"m 417 1089 b 533 1218 433 1104 519 1200 b 549 1229 536 1219 547 1228 b 517 1314 581 1261 561 1314 b 460 1281 496 1314 475 1297 b 349 1158 424 1239 386 1199 b 382 1076 321 1128 342 1081 b 417 1089 394 1075 408 1081 z m 683 256 b 700 736 743 404 749 583 b 579 932 676 808 638 882 b 410 1001 535 975 472 1001 b 193 897 326 1001 250 956 b 68 656 131 831 90 743 b 72 281 38 533 39 400 b 368 -8 108 143 213 -8 b 683 256 521 -8 629 126 z m 156 349 b 194 724 131 472 143 610 b 410 906 231 806 311 906 b 622 646 536 906 601 749 b 585 272 647 522 636 386 b 364 89 546 186 468 89 b 156 349 243 89 175 249 z "},"Ô":{"ha":778,"x_min":0,"x_max":0,"o":"m 294 1075 b 390 1192 306 1099 371 1175 b 471 1083 404 1178 460 1099 b 507 1065 479 1071 493 1065 b 557 1107 531 1065 554 1082 b 550 1139 557 1118 557 1131 b 456 1264 521 1182 492 1226 b 390 1292 439 1281 414 1292 b 314 1253 360 1292 333 1274 b 215 1133 276 1217 244 1176 b 203 1104 210 1124 204 1114 b 253 1047 200 1069 226 1047 b 294 1075 268 1047 285 1056 z m 683 256 b 700 736 743 404 749 583 b 579 932 676 808 638 882 b 410 1001 535 975 472 1001 b 193 897 326 1001 250 956 b 68 656 131 831 90 743 b 72 281 38 533 39 400 b 368 -8 108 143 213 -8 b 683 256 521 -8 629 126 z m 156 349 b 194 724 131 472 143 610 b 410 906 231 806 311 906 b 622 646 536 906 601 749 b 585 272 647 522 636 386 b 364 89 546 186 468 89 b 156 349 243 89 175 249 z "},"Õ":{"ha":778,"x_min":0,"x_max":0,"o":"m 514 1076 b 574 1126 538 1085 558 1106 b 603 1226 586 1146 607 1204 b 556 1267 599 1251 578 1267 b 528 1258 546 1267 536 1264 b 508 1233 519 1251 511 1243 b 482 1169 503 1211 500 1185 b 413 1222 471 1175 424 1215 b 304 1263 382 1246 343 1263 b 182 1147 238 1263 206 1200 b 236 1082 167 1113 200 1071 b 269 1106 250 1085 264 1093 b 306 1165 276 1119 292 1158 b 346 1151 315 1169 336 1157 b 438 1083 378 1131 403 1099 b 486 1072 453 1076 469 1072 b 514 1076 496 1072 506 1074 z m 683 256 b 700 736 743 404 749 583 b 579 932 676 808 638 882 b 410 1001 535 975 472 1001 b 193 897 326 1001 250 956 b 68 656 131 831 90 743 b 72 281 38 533 39 400 b 368 -8 108 143 213 -8 b 683 256 521 -8 629 126 z m 156 349 b 194 724 131 472 143 610 b 410 906 231 806 311 906 b 622 646 536 906 601 749 b 585 272 647 522 636 386 b 364 89 546 186 468 89 b 156 349 243 89 175 249 z "},"Ö":{"ha":778,"x_min":0,"x_max":0,"o":"m 560 1143 b 521 1206 567 1172 550 1203 b 504 1207 515 1206 510 1207 b 478 1200 494 1207 486 1206 b 472 1121 449 1183 444 1140 b 510 1108 483 1113 497 1108 b 560 1143 532 1108 554 1121 z m 342 1158 b 276 1196 333 1188 306 1203 b 238 1136 250 1188 229 1164 b 256 1106 240 1125 246 1113 b 288 1096 264 1100 276 1094 b 342 1158 321 1099 350 1126 z m 683 256 b 700 736 743 404 749 583 b 579 932 676 808 638 882 b 410 1001 535 975 472 1001 b 193 897 326 1001 250 956 b 68 656 131 831 90 743 b 72 281 38 533 39 400 b 368 -8 108 143 213 -8 b 683 256 521 -8 629 126 z m 156 349 b 194 724 131 472 143 610 b 410 906 231 806 311 906 b 622 646 536 906 601 749 b 585 272 647 522 636 386 b 364 89 546 186 468 89 b 156 349 243 89 175 249 z "},"×":{"ha":511,"x_min":0,"x_max":0,"o":"m 154 251 b 256 367 188 290 221 329 b 368 253 293 329 331 290 b 410 242 378 242 396 238 b 436 321 446 251 463 294 b 322 436 399 360 360 399 b 464 590 371 486 424 533 b 458 647 475 606 472 633 b 421 663 447 657 433 663 b 390 651 410 663 399 660 b 360 613 378 639 371 625 b 251 504 346 599 265 517 b 133 601 214 539 175 572 b 83 615 119 611 100 618 b 69 524 39 607 28 543 b 83 517 74 522 79 521 b 185 433 119 492 153 464 b 81 314 149 394 114 354 b 117 232 49 276 81 232 b 154 251 129 232 143 238 z "},"Ø":{"ha":786,"x_min":0,"x_max":0,"o":"m 154 -44 b 210 56 172 -11 190 22 b 369 -8 253 18 313 -7 b 686 256 522 -8 633 125 b 728 629 733 372 744 504 b 653 847 718 706 692 782 b 703 936 669 876 686 907 b 660 1011 725 976 692 1011 b 618 985 644 1011 628 1003 b 588 929 608 965 597 947 b 414 1001 542 974 478 1001 b 197 897 331 1001 253 956 b 72 656 135 831 94 743 b 54 392 50 569 46 479 b 142 132 64 301 90 208 b 69 3 117 89 93 46 b 113 -71 47 -36 79 -71 b 154 -44 128 -71 143 -62 z m 149 519 b 199 724 153 589 169 660 b 413 904 238 811 322 904 b 538 840 461 904 507 876 b 197 232 424 638 310 435 b 149 519 154 319 142 422 z m 258 142 b 596 746 371 343 483 544 b 636 465 633 660 644 560 b 443 107 626 335 568 169 b 369 89 421 96 394 89 b 258 142 325 89 290 111 z "},"Ù":{"ha":756,"x_min":0,"x_max":0,"o":"m 488 1076 b 492 1144 507 1094 511 1125 b 375 1275 450 1186 415 1233 b 328 1310 361 1289 347 1307 b 278 1238 286 1318 254 1271 b 311 1200 288 1224 300 1213 b 422 1076 349 1160 383 1115 b 456 1064 431 1068 443 1064 b 488 1076 467 1064 479 1068 z m 690 456 b 696 775 703 561 704 669 b 664 965 690 840 681 904 b 619 997 658 985 639 997 b 571 940 589 997 563 972 b 604 649 594 846 603 747 b 364 96 604 501 576 96 b 163 363 225 96 175 249 b 219 942 139 556 169 754 b 188 996 225 963 210 990 b 172 997 182 997 178 997 b 126 965 151 997 132 986 b 61 593 90 844 69 719 b 83 256 53 481 54 365 b 371 0 122 113 211 0 b 690 456 594 0 667 278 z "},"Ú":{"ha":756,"x_min":0,"x_max":0,"o":"m 407 1071 b 558 1222 431 1094 531 1206 b 536 1314 603 1249 582 1314 b 479 1285 514 1314 496 1299 b 338 1139 461 1267 356 1157 b 339 1075 322 1122 322 1090 b 376 1058 349 1064 363 1058 b 407 1071 388 1058 399 1063 z m 690 456 b 696 775 703 561 704 669 b 664 965 690 840 681 904 b 619 997 658 985 639 997 b 571 940 589 997 563 972 b 604 649 594 846 603 747 b 364 96 604 501 576 96 b 163 363 225 96 175 249 b 219 942 139 556 169 754 b 188 996 225 963 210 990 b 172 997 182 997 178 997 b 126 965 151 997 132 986 b 61 593 90 844 69 719 b 83 256 53 481 54 365 b 371 0 122 113 211 0 b 690 456 594 0 667 278 z "},"Û":{"ha":756,"x_min":0,"x_max":0,"o":"m 294 1069 b 372 1151 303 1085 361 1138 b 401 1182 382 1161 392 1172 b 532 1065 435 1146 485 1053 b 569 1122 558 1072 576 1097 b 481 1238 567 1139 494 1222 b 426 1282 467 1256 449 1274 b 401 1286 418 1285 410 1286 b 360 1274 388 1286 372 1282 b 281 1194 329 1253 307 1222 b 215 1129 272 1186 222 1140 b 203 1094 208 1119 201 1107 b 254 1044 206 1064 221 1044 b 294 1069 271 1044 286 1053 z m 690 456 b 696 775 703 561 704 669 b 664 965 690 840 681 904 b 619 997 658 985 639 997 b 571 940 589 997 563 972 b 604 649 594 846 603 747 b 364 96 604 501 576 96 b 163 363 225 96 175 249 b 219 942 139 556 169 754 b 188 996 225 963 210 990 b 172 997 182 997 178 997 b 126 965 151 997 132 986 b 61 593 90 844 69 719 b 83 256 53 481 54 365 b 371 0 122 113 211 0 b 690 456 594 0 667 278 z "},"Ü":{"ha":756,"x_min":0,"x_max":0,"o":"m 318 1213 b 304 1214 314 1214 308 1214 b 268 1131 261 1214 235 1164 b 314 1114 281 1119 297 1113 b 318 1213 374 1118 376 1197 z m 531 1204 b 507 1211 524 1208 515 1211 b 453 1175 483 1211 458 1196 b 483 1113 446 1149 457 1119 b 499 1111 489 1111 494 1111 b 531 1204 550 1111 581 1176 z m 690 456 b 696 775 703 561 704 669 b 664 965 690 840 681 904 b 619 997 658 985 639 997 b 571 940 589 997 563 972 b 604 649 594 846 603 747 b 364 96 604 501 576 96 b 163 363 225 96 175 249 b 219 942 139 556 169 754 b 188 996 225 963 210 990 b 172 997 182 997 178 997 b 126 965 151 997 132 986 b 61 593 90 844 69 719 b 83 256 53 481 54 365 b 371 0 122 113 211 0 b 690 456 594 0 667 278 z "},"Ý":{"ha":628,"x_min":0,"x_max":0,"o":"m 332 1057 b 363 1082 344 1061 354 1071 b 474 1242 376 1101 458 1222 b 476 1244 474 1243 475 1244 b 446 1331 515 1278 486 1331 b 418 1322 438 1331 428 1328 b 396 1301 410 1318 401 1310 b 288 1144 360 1249 325 1196 b 276 1132 285 1139 279 1136 b 314 1053 253 1097 276 1053 b 332 1057 319 1053 325 1054 z m 135 42 b 135 56 135 44 135 53 b 161 117 143 76 151 97 b 601 894 219 240 514 790 b 611 901 603 896 610 901 b 578 986 644 936 619 986 b 560 983 572 986 567 986 b 453 849 526 971 472 878 b 297 581 399 760 347 671 b 138 914 244 664 167 815 b 135 931 136 919 133 925 b 86 986 140 963 114 986 b 38 942 64 986 38 965 b 176 593 31 869 142 657 b 243 485 197 556 218 519 b 38 68 210 422 54 138 b 71 3 32 42 44 10 b 85 1 75 1 79 1 b 135 42 110 1 132 17 z "},"Þ":{"ha":568,"x_min":0,"x_max":0,"o":"m 181 71 b 171 222 176 121 172 172 b 531 489 301 244 482 357 b 535 649 549 539 553 597 b 254 825 496 761 368 825 b 186 818 232 825 208 822 b 197 921 188 832 194 907 b 200 939 199 926 200 933 b 151 988 200 969 175 988 b 97 906 106 988 100 940 b 74 432 82 747 75 590 b 83 63 71 308 71 185 b 133 21 86 40 108 21 b 181 71 160 24 183 44 z m 181 717 b 257 728 204 724 231 728 b 438 632 324 728 406 692 b 449 567 447 613 451 589 b 169 321 443 444 278 353 b 181 717 169 453 172 585 z "},"ß":{"ha":671,"x_min":0,"x_max":0,"o":"m 150 -256 b 147 -190 165 -236 164 -208 b 143 89 143 -153 143 51 b 201 640 144 274 157 461 b 388 915 229 750 278 915 b 469 839 431 915 468 883 b 418 688 471 786 444 733 b 318 543 389 636 350 592 b 292 492 307 526 297 510 b 297 422 283 468 285 444 b 344 376 308 403 326 388 b 503 301 394 346 456 335 b 543 249 521 288 536 269 b 538 203 547 235 543 218 b 397 93 517 151 457 93 b 329 144 363 93 344 115 b 317 169 325 153 322 163 b 281 186 307 181 294 186 b 236 158 263 186 244 176 b 232 128 232 149 229 138 b 397 -4 251 51 319 -4 b 642 231 517 -4 638 111 b 599 343 643 271 625 313 b 476 424 567 379 522 407 b 385 467 446 436 411 444 b 475 594 394 488 463 576 b 567 825 521 663 563 742 b 386 1013 572 928 488 1013 b 65 438 151 1013 88 613 b 47 -147 43 243 44 47 b 54 -231 47 -175 49 -203 b 108 -275 60 -258 83 -275 b 150 -256 122 -275 139 -269 z "},"à":{"ha":611,"x_min":0,"x_max":0,"o":"m 457 771 b 460 839 475 790 479 821 b 333 961 419 882 378 922 b 331 967 332 963 331 965 b 301 989 325 978 314 986 b 246 914 258 1001 224 954 b 299 863 258 893 281 879 b 393 769 332 833 361 801 b 424 758 400 763 413 758 b 457 771 436 758 449 763 z m 417 261 b 471 63 426 193 442 125 b 524 0 479 44 506 6 b 575 79 574 -12 610 43 b 506 324 531 129 513 260 b 504 589 496 411 493 501 b 476 679 507 618 503 667 b 464 683 474 679 465 682 b 364 711 438 706 397 711 b 117 553 246 711 174 653 b 101 33 38 410 -15 150 b 201 -6 125 8 164 -6 b 417 261 319 -6 385 169 z m 156 118 b 131 260 131 158 129 211 b 296 603 136 363 190 556 b 389 613 325 617 358 617 b 406 606 396 611 407 611 b 218 97 383 494 311 163 b 199 90 213 93 206 90 b 156 118 182 90 165 103 z "},"á":{"ha":614,"x_min":0,"x_max":0,"o":"m 381 788 b 461 872 392 797 451 861 b 501 918 475 888 486 906 b 469 1004 538 949 514 1004 b 429 990 456 1004 439 1000 b 400 950 418 979 411 963 b 313 856 390 938 324 868 b 313 792 296 839 296 808 b 351 775 324 781 338 775 b 381 788 363 775 372 779 z m 417 261 b 471 63 426 193 442 125 b 524 0 479 44 506 6 b 575 79 574 -12 610 43 b 506 324 531 129 513 260 b 504 589 496 411 493 501 b 476 679 507 618 503 667 b 464 683 474 679 465 682 b 364 711 438 706 397 711 b 117 553 246 711 174 653 b 101 33 38 410 -15 150 b 201 -6 125 8 164 -6 b 417 261 319 -6 385 169 z m 156 118 b 131 260 131 158 129 211 b 296 603 136 363 190 556 b 389 613 325 617 358 617 b 406 606 396 611 407 611 b 218 97 383 494 311 163 b 199 90 213 93 206 90 b 156 118 182 90 165 103 z "},"â":{"ha":614,"x_min":0,"x_max":0,"o":"m 247 761 b 356 886 286 800 319 844 b 424 797 379 858 401 828 b 460 781 432 786 446 781 b 507 813 481 781 501 792 b 501 854 510 826 510 843 b 369 994 478 893 415 981 b 301 971 346 1000 318 988 b 206 860 267 936 239 896 b 174 822 194 849 183 836 b 179 765 163 807 165 779 b 218 750 190 756 204 750 b 247 761 229 750 239 753 z m 417 261 b 471 63 426 193 442 125 b 524 0 479 44 506 6 b 575 79 574 -12 610 43 b 506 324 531 129 513 260 b 504 589 496 411 493 501 b 476 679 507 618 503 667 b 464 683 474 679 465 682 b 364 711 438 706 397 711 b 117 553 246 711 174 653 b 101 33 38 410 -15 150 b 201 -6 125 8 164 -6 b 417 261 319 -6 385 169 z m 156 118 b 131 260 131 158 129 211 b 296 603 136 363 190 556 b 389 613 325 617 358 617 b 406 606 396 611 407 611 b 218 97 383 494 311 163 b 199 90 213 93 206 90 b 156 118 182 90 165 103 z "},"ã":{"ha":628,"x_min":0,"x_max":0,"o":"m 221 792 b 281 875 240 821 260 849 b 308 894 286 882 300 894 b 321 888 311 896 318 890 b 394 808 349 865 368 833 b 450 778 410 793 429 781 b 511 789 471 774 493 779 b 567 853 536 803 554 828 b 594 929 572 865 594 914 b 547 976 594 957 572 976 b 504 951 531 976 511 967 b 465 875 497 938 476 885 b 407 940 456 882 415 931 b 325 992 385 963 357 986 b 249 974 299 994 271 988 b 171 892 217 954 193 922 b 136 838 165 883 139 847 b 183 774 128 804 151 774 b 221 792 197 774 213 779 z m 418 261 b 472 63 428 193 443 125 b 525 0 481 44 507 6 b 576 79 575 -12 611 43 b 507 324 532 129 514 260 b 506 589 497 411 494 501 b 478 679 508 618 504 667 b 465 683 475 679 467 682 b 365 711 439 706 399 711 b 118 553 247 711 175 653 b 103 33 39 410 -14 150 b 203 -6 126 8 165 -6 b 418 261 321 -6 386 169 z m 157 118 b 132 260 132 158 131 211 b 297 603 138 363 192 556 b 390 613 326 617 360 617 b 407 606 397 611 408 611 b 219 97 385 494 313 163 b 200 90 214 93 207 90 b 157 118 183 90 167 103 z "},"ä":{"ha":613,"x_min":0,"x_max":0,"o":"m 347 861 b 306 919 350 889 333 917 b 300 919 304 919 301 919 b 256 843 260 919 232 876 b 300 821 267 828 283 821 b 347 861 322 821 344 835 z m 504 835 b 490 908 524 858 518 896 b 464 914 482 913 474 914 b 432 904 453 914 440 911 b 457 814 389 874 411 814 b 504 835 474 814 493 822 z m 417 261 b 471 63 426 193 442 125 b 524 0 479 44 506 6 b 575 79 574 -12 610 43 b 506 324 531 129 513 260 b 504 589 496 411 493 501 b 476 679 507 618 503 667 b 464 683 474 679 465 682 b 364 711 438 706 397 711 b 117 553 246 711 174 653 b 101 33 38 410 -15 150 b 201 -6 125 8 164 -6 b 417 261 319 -6 385 169 z m 156 118 b 131 260 131 158 129 211 b 296 603 136 363 190 556 b 389 613 325 617 358 617 b 406 606 396 611 407 611 b 218 97 383 494 311 163 b 199 90 213 93 206 90 b 156 118 182 90 165 103 z "},"å":{"ha":614,"x_min":0,"x_max":0,"o":"m 383 769 b 503 961 463 790 514 881 b 383 1076 493 1025 451 1076 b 240 947 310 1076 257 1014 b 249 842 232 913 233 874 b 357 767 265 797 310 767 b 383 769 365 767 375 767 z m 335 886 b 372 976 325 918 342 963 b 382 979 376 978 379 979 b 406 924 401 979 410 949 b 357 864 401 901 383 864 b 335 886 344 864 338 876 z m 417 261 b 471 63 426 193 442 125 b 524 0 479 44 506 6 b 575 79 574 -12 610 43 b 506 324 531 129 513 260 b 504 589 496 411 493 501 b 476 679 507 618 503 667 b 464 683 474 679 465 682 b 364 711 438 706 397 711 b 117 553 246 711 174 653 b 101 33 38 410 -15 150 b 201 -6 125 8 164 -6 b 417 261 319 -6 385 169 z m 156 118 b 131 260 131 158 129 211 b 296 603 136 363 190 556 b 389 613 325 617 358 617 b 406 606 396 611 407 611 b 218 97 383 494 311 163 b 199 90 213 93 206 90 b 156 118 182 90 165 103 z "},"æ":{"ha":906,"x_min":0,"x_max":0,"o":"m 393 192 b 576 -10 408 90 463 -10 b 872 254 715 -10 832 133 b 883 294 874 260 883 289 b 836 351 886 326 864 351 b 790 317 815 351 794 338 b 596 90 764 229 696 108 b 547 94 581 86 561 86 b 486 332 482 126 479 260 b 536 325 503 328 519 325 b 725 422 607 325 679 374 b 722 717 806 510 819 649 b 642 738 700 732 669 738 b 493 651 581 738 528 700 l 492 653 b 356 703 468 686 396 703 b 32 232 133 703 35 417 b 199 -17 32 126 69 -17 b 393 192 301 -17 361 110 z m 503 433 b 644 643 517 493 565 643 b 679 625 658 643 671 638 b 688 543 696 603 696 569 b 535 422 665 489 597 422 b 503 433 522 422 511 426 z m 156 108 b 131 200 139 135 132 168 b 168 429 126 278 140 357 b 294 593 192 485 235 567 b 346 604 311 600 329 603 b 404 596 358 604 394 604 b 253 128 376 454 331 253 b 199 81 243 113 218 81 b 156 108 181 81 163 93 z "},"ç":{"ha":554,"x_min":0,"x_max":0,"o":"m 364 -224 b 367 -126 376 -193 378 -157 b 319 -68 358 -103 340 -82 b 222 -50 292 -51 256 -46 b 233 -21 226 -40 229 -31 b 521 243 371 -11 479 119 b 533 283 522 249 532 278 b 485 340 536 315 513 340 b 439 306 465 340 443 326 b 342 133 421 243 389 181 b 226 76 313 106 265 76 b 189 88 213 76 200 79 b 140 364 124 132 128 286 b 294 631 151 435 199 631 b 342 572 329 631 339 601 b 342 514 342 553 335 532 b 389 482 350 493 369 482 b 439 569 436 482 439 535 b 293 728 439 654 381 728 b 61 456 157 728 88 567 b 42 181 38 367 29 272 b 139 4 50 118 81 38 b 108 -76 129 -22 119 -50 b 97 -114 103 -87 97 -100 b 147 -165 97 -142 118 -165 b 249 -146 171 -165 218 -146 b 274 -156 260 -146 268 -149 b 274 -190 279 -165 278 -179 b 242 -228 268 -206 257 -219 b 179 -242 224 -239 200 -237 b 158 -329 138 -250 124 -304 b 189 -339 168 -335 179 -339 b 364 -224 272 -329 332 -308 z "},"è":{"ha":557,"x_min":0,"x_max":0,"o":"m 396 861 b 375 883 392 869 385 879 b 281 932 343 899 310 913 b 217 985 258 949 239 968 b 194 990 211 989 203 990 b 167 983 183 990 174 988 b 156 910 142 967 135 932 b 228 850 165 900 217 858 b 353 792 253 835 326 792 b 396 861 388 792 411 828 z m 522 243 b 535 283 524 249 533 278 b 486 340 538 315 514 340 b 440 306 467 340 444 326 b 247 79 415 219 346 97 b 197 83 231 75 213 75 b 136 321 132 115 129 249 b 186 314 153 317 169 314 b 375 411 256 314 331 363 b 372 706 456 499 469 638 b 296 728 350 719 322 728 b 79 515 179 728 113 613 b 43 181 44 410 28 293 b 168 -10 54 104 90 18 b 226 -21 186 -17 206 -21 b 522 243 367 -21 482 122 z m 154 422 b 294 632 167 482 217 632 b 329 614 308 632 321 626 b 338 532 346 592 347 558 b 185 411 315 478 249 411 b 154 422 174 411 163 415 z "},"é":{"ha":557,"x_min":0,"x_max":0,"o":"m 408 896 b 436 929 418 907 431 915 b 392 994 449 963 421 994 b 365 986 382 994 374 992 b 300 922 340 969 322 944 b 217 860 275 899 247 876 b 192 840 208 854 197 849 b 238 763 165 804 193 758 b 408 896 275 767 383 869 z m 521 243 b 533 283 522 249 532 278 b 485 340 536 315 513 340 b 439 306 465 340 443 326 b 246 79 414 219 344 97 b 196 83 229 75 211 75 b 135 321 131 115 128 249 b 185 314 151 317 168 314 b 374 411 254 314 329 363 b 371 706 454 499 468 638 b 294 728 349 719 321 728 b 78 515 178 728 111 613 b 42 181 43 410 26 293 b 167 -10 53 104 89 18 b 225 -21 185 -17 204 -21 b 521 243 365 -21 481 122 z m 153 422 b 293 632 165 482 215 632 b 328 614 307 632 319 626 b 336 532 344 592 346 558 b 183 411 314 478 247 411 b 153 422 172 411 161 415 z "},"ê":{"ha":564,"x_min":0,"x_max":0,"o":"m 189 765 b 264 879 197 782 253 864 b 333 801 289 856 311 829 b 365 775 342 792 351 778 b 417 853 414 761 449 814 b 339 942 392 883 367 914 b 261 988 318 964 293 988 b 239 985 253 988 246 986 b 103 811 197 968 118 844 b 147 739 85 771 115 739 b 189 765 163 739 178 746 z m 528 243 b 540 283 529 249 539 278 b 492 340 543 315 519 340 b 446 306 472 340 450 326 b 253 79 421 219 351 97 b 203 83 236 75 218 75 b 142 321 138 115 135 249 b 192 314 158 317 175 314 b 381 411 261 314 336 363 b 378 706 461 499 475 638 b 301 728 356 719 328 728 b 85 515 185 728 118 613 b 49 181 50 410 33 293 b 174 -10 60 104 96 18 b 232 -21 192 -17 211 -21 b 528 243 372 -21 488 122 z m 160 422 b 300 632 172 482 222 632 b 335 614 314 632 326 626 b 343 532 351 592 353 558 b 190 411 321 478 254 411 b 160 422 179 411 168 415 z "},"ë":{"ha":558,"x_min":0,"x_max":0,"o":"m 413 818 b 399 915 468 833 456 911 b 394 915 397 915 396 915 b 371 824 344 915 326 849 b 413 818 383 817 399 814 z m 249 882 b 201 910 240 900 221 910 b 163 893 188 910 172 906 b 192 814 139 864 154 819 b 201 813 194 814 199 813 b 249 882 238 813 264 847 z m 522 243 b 535 283 524 249 533 278 b 486 340 538 315 514 340 b 440 306 467 340 444 326 b 247 79 415 219 346 97 b 197 83 231 75 213 75 b 136 321 132 115 129 249 b 186 314 153 317 169 314 b 375 411 256 314 331 363 b 372 706 456 499 469 638 b 296 728 350 719 322 728 b 79 515 179 728 113 613 b 43 181 44 410 28 293 b 168 -10 54 104 90 18 b 226 -21 186 -17 206 -21 b 522 243 367 -21 482 122 z m 154 422 b 294 632 167 482 217 632 b 329 614 308 632 321 626 b 338 532 346 592 347 558 b 185 411 315 478 249 411 b 154 422 174 411 163 415 z "},"ì":{"ha":308,"x_min":0,"x_max":0,"o":"m 272 832 b 204 874 257 853 226 860 b 121 963 182 888 129 939 b 76 993 113 983 94 993 b 28 957 56 993 35 981 b 44 897 22 938 32 914 b 157 789 74 860 115 813 b 231 757 169 782 215 757 b 272 832 268 757 294 800 z m 196 31 b 204 60 201 39 206 50 b 199 149 201 90 200 119 b 208 486 199 192 207 443 b 221 656 210 510 217 632 b 172 711 226 686 201 711 b 125 678 151 711 132 699 b 121 615 119 658 122 636 b 114 536 118 589 117 563 b 101 181 111 490 101 226 b 110 42 101 158 103 64 b 156 10 118 21 136 10 b 196 31 171 10 186 17 z "},"í":{"ha":306,"x_min":0,"x_max":0,"o":"m 125 756 b 226 853 160 788 194 819 b 261 899 239 867 250 883 b 283 929 268 910 279 918 b 238 994 296 961 271 994 b 197 975 222 994 208 986 b 163 928 185 960 175 943 b 56 824 131 890 90 858 b 44 797 49 817 46 807 b 93 743 42 765 67 743 b 125 756 104 743 115 747 z m 174 60 b 168 149 171 90 168 119 b 178 486 168 192 175 443 b 190 656 178 510 186 632 b 142 711 196 686 169 711 b 94 678 121 711 99 699 b 89 615 89 658 90 636 b 83 536 88 589 85 563 b 71 181 79 490 71 226 b 79 42 71 158 71 64 b 125 10 86 21 106 10 b 174 60 151 10 174 33 z "},"î":{"ha":394,"x_min":0,"x_max":0,"o":"m 103 760 b 207 879 115 778 193 863 b 315 757 228 856 285 765 b 363 767 331 753 351 756 b 367 835 382 786 386 817 b 283 939 335 867 313 906 b 233 978 269 954 253 971 b 208 982 225 981 217 982 b 168 972 194 982 179 979 b 38 835 142 957 58 858 b 18 781 25 821 13 800 b 68 742 25 756 46 742 b 103 760 81 742 93 747 z m 242 60 b 236 149 239 90 236 119 b 246 486 236 192 243 443 b 258 656 246 510 254 632 b 210 711 264 686 238 711 b 163 678 189 711 167 699 b 157 615 157 658 158 636 b 151 536 156 589 153 563 b 139 181 147 490 139 226 b 147 42 139 158 139 64 b 193 10 156 21 174 10 b 242 60 219 10 242 33 z "},"ï":{"ha":331,"x_min":0,"x_max":0,"o":"m 126 857 b 76 918 135 892 108 918 b 47 910 67 918 57 915 b 74 819 0 882 25 819 b 126 857 97 819 119 835 z m 275 913 b 219 851 239 918 210 886 b 267 815 225 831 244 815 b 275 913 326 815 338 900 z m 203 60 b 197 149 200 90 199 119 b 207 486 197 192 204 443 b 219 656 208 510 215 632 b 171 711 225 686 200 711 b 124 678 150 711 131 699 b 119 615 118 658 121 636 b 113 536 117 589 115 563 b 100 181 110 490 100 226 b 108 42 100 158 101 64 b 154 10 117 21 135 10 b 203 60 183 10 203 32 z "},"ð":{"ha":563,"x_min":0,"x_max":0,"o":"m 489 221 b 496 590 521 340 525 471 b 500 597 496 592 499 596 b 503 638 506 610 507 625 b 467 674 497 653 482 665 b 347 842 439 736 396 793 b 426 904 374 863 399 883 b 463 931 438 913 453 918 b 425 1010 492 965 463 1010 b 400 1003 417 1010 408 1008 b 276 910 356 976 317 942 b 197 978 267 918 208 969 b 167 996 188 985 178 990 b 117 1008 151 1001 133 1013 b 111 911 65 994 61 929 b 135 903 114 910 132 904 b 200 847 146 897 192 856 b 92 738 176 828 99 768 b 101 690 88 722 89 701 b 139 674 111 679 125 674 b 169 686 150 674 161 678 b 199 719 181 697 189 710 b 272 781 222 742 247 761 b 356 679 303 749 332 715 b 57 336 215 636 90 474 b 50 168 43 282 38 224 b 250 -6 72 71 146 -6 b 489 221 374 -6 460 113 z m 154 161 b 168 367 128 225 143 303 b 396 589 203 450 301 569 b 399 260 429 485 426 365 b 251 92 379 193 333 92 b 154 161 210 92 171 119 z "},"ñ":{"ha":681,"x_min":0,"x_max":0,"o":"m 208 811 b 214 828 210 817 211 822 b 265 897 224 844 247 892 b 279 886 269 899 276 889 b 389 794 313 851 346 813 b 426 788 401 789 414 788 b 494 815 450 788 475 797 b 551 919 514 833 551 893 b 503 968 551 949 528 968 b 479 963 494 968 486 967 b 431 889 454 947 451 910 b 425 885 429 886 426 885 b 333 968 406 892 349 954 b 268 994 315 983 292 994 b 189 963 239 994 210 982 b 114 838 168 942 117 868 b 126 793 113 822 115 804 b 164 778 138 782 150 778 b 208 811 183 778 203 789 z m 158 15 b 183 147 164 32 181 129 b 315 547 208 276 243 436 b 435 629 342 586 389 629 b 519 515 492 629 511 560 b 528 131 544 389 532 258 b 532 18 526 111 526 35 b 578 -15 540 -3 558 -15 b 618 6 593 -15 608 -8 b 626 36 624 14 628 25 b 628 222 621 97 626 160 b 624 478 632 307 633 393 b 436 724 613 590 569 724 b 163 453 288 724 207 574 b 146 663 160 522 154 593 b 126 696 144 675 136 688 b 99 704 118 701 108 704 b 50 646 71 704 47 679 b 68 336 63 543 67 439 b 64 33 68 235 64 133 b 114 -17 64 1 89 -17 b 158 15 132 -17 150 -7 z "},"ò":{"ha":561,"x_min":0,"x_max":0,"o":"m 394 821 b 376 854 393 833 386 846 b 272 938 340 882 308 911 b 201 981 256 951 224 981 b 153 935 178 981 156 963 b 165 900 151 922 156 908 b 224 853 182 882 204 869 b 314 779 254 829 283 803 b 346 768 324 772 335 768 b 394 821 372 768 396 790 z m 469 158 b 521 485 522 254 542 376 b 306 711 500 592 426 711 b 108 586 221 711 151 654 b 35 346 61 517 39 429 b 82 128 32 272 46 193 b 260 10 117 60 181 10 b 469 158 353 10 428 81 z m 136 269 b 150 446 128 328 131 390 b 304 614 174 519 231 614 b 428 451 379 614 419 511 b 414 275 435 392 432 331 b 261 106 390 203 333 106 b 136 269 183 106 144 207 z "},"ó":{"ha":564,"x_min":0,"x_max":0,"o":"m 299 782 b 435 903 322 793 414 888 b 447 967 454 917 460 947 b 404 990 436 981 421 990 b 379 982 396 990 388 988 b 250 865 361 969 268 882 b 268 781 221 839 229 792 b 299 782 278 778 289 778 z m 468 158 b 519 485 521 254 540 376 b 304 711 499 592 425 711 b 107 586 219 711 150 654 b 33 346 60 517 38 429 b 81 128 31 272 44 193 b 258 10 115 60 179 10 b 468 158 351 10 426 81 z m 135 269 b 149 446 126 328 129 390 b 303 614 172 519 229 614 b 426 451 378 614 418 511 b 413 275 433 392 431 331 b 260 106 389 203 332 106 b 135 269 182 106 143 207 z "},"ô":{"ha":568,"x_min":0,"x_max":0,"o":"m 189 769 b 281 893 218 811 250 853 b 363 781 310 857 336 818 b 399 763 371 768 385 763 b 447 804 422 763 446 779 b 442 838 449 815 447 828 b 351 960 413 879 383 921 b 279 1006 333 983 310 1006 b 244 996 267 1006 254 1003 b 110 825 214 975 129 856 b 150 751 88 793 114 751 b 189 769 164 751 181 757 z m 474 158 b 525 485 526 254 546 376 b 310 711 504 592 431 711 b 113 586 225 711 156 654 b 39 346 65 517 43 429 b 86 128 36 272 50 193 b 264 10 121 60 185 10 b 474 158 357 10 432 81 z m 140 269 b 154 446 132 328 135 390 b 308 614 178 519 235 614 b 432 451 383 614 424 511 b 418 275 439 392 436 331 b 265 106 394 203 338 106 b 140 269 188 106 149 207 z "},"õ":{"ha":576,"x_min":0,"x_max":0,"o":"m 181 803 b 185 818 182 804 183 815 b 207 850 192 829 199 840 b 228 863 211 856 221 864 b 318 817 243 860 303 825 b 406 792 344 803 376 792 b 528 890 464 792 504 842 b 486 963 546 925 524 963 b 449 944 472 963 457 957 b 404 889 439 931 421 890 b 367 901 396 888 374 897 b 228 960 322 924 278 958 b 122 900 188 961 146 933 b 86 819 106 875 86 849 b 135 771 86 788 111 771 b 181 803 154 771 172 781 z m 475 158 b 526 485 528 254 547 376 b 311 711 506 592 432 711 b 114 586 226 711 157 654 b 40 346 67 517 44 429 b 88 128 38 272 51 193 b 265 10 122 60 186 10 b 475 158 358 10 433 81 z m 142 269 b 156 446 133 328 136 390 b 310 614 179 519 236 614 b 433 451 385 614 425 511 b 419 275 440 392 438 331 b 267 106 396 203 339 106 b 142 269 189 106 150 207 z "},"ö":{"ha":564,"x_min":0,"x_max":0,"o":"m 231 907 b 190 918 219 915 204 919 b 171 822 135 914 119 842 b 190 818 178 819 185 818 b 231 907 238 818 269 874 z m 435 811 b 453 890 468 824 478 865 b 410 906 443 900 425 906 b 389 901 401 906 394 904 b 413 807 333 876 360 807 b 435 811 419 807 426 808 z m 469 158 b 521 485 522 254 542 376 b 306 711 500 592 426 711 b 108 586 221 711 151 654 b 35 346 61 517 39 429 b 82 128 32 272 46 193 b 260 10 117 60 181 10 b 469 158 353 10 428 81 z m 136 269 b 150 446 128 328 131 390 b 304 614 174 519 231 614 b 428 451 379 614 419 511 b 414 275 435 392 432 331 b 261 106 390 203 333 106 b 136 269 183 106 144 207 z "},"÷":{"ha":536,"x_min":0,"x_max":0,"o":"m 303 579 b 256 619 299 603 278 619 b 224 607 244 619 233 615 b 239 521 194 583 203 533 b 256 518 244 518 250 518 b 303 579 285 518 308 546 z m 267 350 b 461 357 332 353 397 357 b 494 439 501 357 524 408 b 467 453 488 446 478 453 b 256 446 438 456 286 449 b 88 435 231 444 113 429 b 43 354 42 442 10 386 b 94 335 56 342 75 335 b 267 350 117 336 246 349 z m 306 214 b 258 281 318 247 290 281 b 239 276 251 281 246 279 b 224 194 203 264 194 218 b 258 182 233 186 246 182 b 306 214 279 182 297 193 z "},"ø":{"ha":572,"x_min":0,"x_max":0,"o":"m 99 -74 b 171 38 126 -39 149 -1 b 267 10 199 19 233 10 b 468 144 356 10 425 74 b 533 426 518 228 540 331 b 479 610 529 490 513 556 b 525 711 486 625 522 693 b 476 768 531 743 506 768 b 457 764 469 768 464 767 b 435 742 447 758 439 751 b 407 683 425 722 417 703 b 310 711 379 701 343 711 b 114 586 225 711 158 653 b 42 346 68 517 46 429 b 100 108 38 265 56 176 b 29 -4 76 71 56 31 b 14 -28 24 -12 17 -19 b 61 -93 4 -64 32 -93 b 99 -74 75 -93 89 -87 z m 164 469 b 311 615 192 542 250 615 b 363 596 328 615 346 610 b 257 386 326 526 293 456 b 158 208 226 325 193 267 b 164 469 129 290 133 388 z m 219 121 b 317 292 253 178 286 233 b 422 500 354 360 388 431 b 381 186 454 400 436 275 b 265 107 353 143 310 107 b 219 121 250 107 235 111 z "},"ù":{"ha":675,"x_min":0,"x_max":0,"o":"m 435 847 b 289 985 390 897 340 942 b 257 997 279 993 268 997 b 208 951 233 997 211 979 b 221 917 207 939 211 925 b 322 826 232 906 310 839 b 375 772 331 818 364 778 b 397 767 383 769 390 767 b 435 847 438 767 465 813 z m 515 254 b 532 44 519 185 524 114 b 581 3 535 22 557 3 b 628 61 607 3 631 28 b 611 371 617 164 611 268 b 614 674 610 472 614 574 b 565 724 614 703 590 724 b 519 690 544 724 525 710 b 494 560 515 674 497 576 b 363 160 469 435 435 267 b 244 78 336 121 289 78 b 158 192 186 78 168 146 b 151 576 133 318 146 449 b 146 689 151 596 153 672 b 100 722 138 710 119 722 b 61 701 85 722 71 715 b 51 671 54 693 50 682 b 50 485 57 610 53 547 b 54 229 47 400 44 314 b 242 -17 68 118 108 -17 b 515 254 392 -17 471 132 z "},"ú":{"ha":678,"x_min":0,"x_max":0,"o":"m 346 751 b 486 893 394 797 444 842 b 518 940 504 901 519 922 b 465 988 515 969 492 988 b 438 981 457 988 447 986 b 401 943 422 971 413 956 b 283 825 365 900 324 864 b 265 778 271 814 261 794 b 314 739 272 754 293 739 b 346 751 325 739 336 743 z m 517 254 b 533 44 521 185 525 114 b 582 3 536 22 558 3 b 629 61 608 3 632 28 b 613 371 618 164 613 268 b 615 674 611 472 615 574 b 567 724 615 703 592 724 b 521 690 546 724 526 710 b 496 560 517 674 499 576 b 364 160 471 435 436 267 b 246 78 338 121 290 78 b 160 192 188 78 169 146 b 153 576 135 318 147 449 b 147 689 153 596 154 672 b 101 722 139 710 121 722 b 63 701 86 722 72 715 b 53 671 56 693 51 682 b 51 485 58 610 54 547 b 56 229 49 400 46 314 b 243 -17 69 118 110 -17 b 517 254 393 -17 472 132 z "},"û":{"ha":676,"x_min":0,"x_max":0,"o":"m 250 775 b 251 783 250 776 251 782 b 324 882 260 800 313 868 b 411 796 338 871 400 810 b 450 776 419 783 435 776 b 474 785 458 776 467 779 b 490 851 496 800 506 829 b 363 974 457 894 407 942 b 307 988 347 985 325 992 b 272 971 294 986 282 979 b 161 818 249 949 174 846 b 204 743 142 775 172 743 b 250 775 222 743 239 753 z m 517 254 b 533 44 521 185 525 114 b 582 3 536 22 558 3 b 629 61 608 3 632 28 b 613 371 618 164 613 268 b 615 674 611 472 615 574 b 567 724 615 703 592 724 b 521 690 546 724 526 710 b 496 560 517 674 499 576 b 364 160 471 435 436 267 b 246 78 338 121 290 78 b 160 192 188 78 169 146 b 153 576 135 318 147 449 b 147 689 153 596 154 672 b 101 722 139 710 121 722 b 63 701 86 722 72 715 b 53 671 56 693 51 682 b 51 485 58 610 54 547 b 56 229 49 400 46 314 b 243 -17 69 118 110 -17 b 517 254 393 -17 472 132 z "},"ü":{"ha":674,"x_min":0,"x_max":0,"o":"m 297 822 b 283 906 326 847 318 893 b 265 908 278 908 271 908 b 218 851 236 908 213 882 b 267 811 222 826 244 811 b 297 822 278 811 288 815 z m 453 882 b 414 903 443 896 429 903 b 365 874 396 903 376 892 b 408 801 346 842 371 799 b 453 882 450 806 476 849 z m 515 254 b 532 44 519 185 524 114 b 581 3 535 22 557 3 b 628 61 607 3 631 28 b 611 371 617 164 611 268 b 614 674 610 472 614 574 b 565 724 614 703 590 724 b 519 690 544 724 525 710 b 494 560 515 674 497 576 b 363 160 469 435 435 267 b 244 78 336 121 289 78 b 158 192 186 78 168 146 b 151 576 133 318 146 449 b 146 689 151 596 153 672 b 100 722 138 710 119 722 b 61 701 85 722 71 715 b 51 671 54 693 50 682 b 50 485 57 610 53 547 b 54 229 47 400 44 314 b 242 -17 68 118 108 -17 b 515 254 392 -17 471 132 z "},"ý":{"ha":671,"x_min":0,"x_max":0,"o":"m 354 761 b 461 883 369 776 447 867 b 481 906 467 892 472 900 b 457 997 528 932 500 997 b 435 992 450 997 442 996 b 386 946 414 982 400 963 b 285 829 353 907 319 868 b 325 749 257 797 282 746 b 354 761 335 750 347 754 z m 504 -149 b 600 140 560 -64 585 40 b 619 558 621 278 622 419 b 615 675 618 597 615 636 b 567 724 615 706 590 724 b 525 700 550 724 535 717 b 513 646 521 692 514 654 b 400 225 485 503 461 357 b 246 79 372 167 321 79 b 146 367 156 79 147 247 b 149 682 146 413 158 636 b 103 721 144 707 124 721 b 67 706 90 721 76 717 b 53 671 57 697 51 683 b 50 469 58 604 53 538 b 56 235 47 392 47 313 b 244 -17 67 121 108 -17 b 515 250 393 -17 468 129 b 394 -132 506 128 478 -37 b 278 -192 365 -164 319 -192 b 190 -119 231 -192 210 -158 b 139 -97 183 -103 157 -92 b 104 -162 110 -104 92 -135 b 278 -289 136 -236 196 -289 b 504 -149 372 -289 453 -224 z "},"þ":{"ha":625,"x_min":0,"x_max":0,"o":"m 160 -249 b 165 -183 165 -228 164 -206 b 171 81 165 -96 167 -7 b 319 32 215 49 265 32 b 389 44 343 32 367 36 b 588 346 508 85 576 228 b 579 525 593 406 593 467 b 422 692 556 606 521 692 b 174 518 314 692 225 606 b 189 894 182 644 186 768 b 185 958 189 915 193 939 b 140 990 178 979 158 990 b 90 940 113 990 90 967 b 88 704 93 908 89 736 b 71 417 83 608 75 513 b 61 -87 63 249 61 81 b 63 -212 61 -129 61 -171 b 114 -282 65 -246 72 -282 b 160 -249 135 -282 154 -271 z m 190 201 b 183 215 189 204 183 213 b 368 579 199 333 243 528 b 421 594 385 588 403 594 b 482 513 457 594 474 542 b 479 294 500 442 499 364 b 318 129 458 221 403 129 b 190 201 267 129 215 157 z "},"ÿ":{"ha":667,"x_min":0,"x_max":0,"o":"m 279 826 b 258 915 318 853 304 911 b 253 915 257 915 254 915 b 201 858 221 915 194 892 b 251 818 206 833 228 818 b 279 826 261 818 271 821 z m 474 821 b 467 915 521 835 515 906 b 460 915 465 915 463 915 b 408 899 443 915 418 908 b 425 817 383 872 390 829 b 439 814 429 815 435 814 b 474 821 450 814 463 818 z m 503 -149 b 599 140 558 -64 583 40 b 618 558 619 278 621 419 b 614 675 617 597 614 636 b 565 724 614 706 589 724 b 524 700 549 724 533 717 b 511 646 519 692 513 654 b 399 225 483 503 460 357 b 244 79 371 167 319 79 b 144 367 154 79 146 247 b 147 682 144 413 157 636 b 101 721 143 707 122 721 b 65 706 89 721 75 717 b 51 671 56 697 50 683 b 49 469 57 604 51 538 b 54 235 46 392 46 313 b 243 -17 65 121 107 -17 b 514 250 392 -17 467 129 b 393 -132 504 128 476 -37 b 276 -192 364 -164 318 -192 b 189 -119 229 -192 208 -158 b 138 -97 182 -103 156 -92 b 103 -162 108 -104 90 -135 b 276 -289 135 -236 194 -289 b 503 -149 371 -289 451 -224 z "},"Ł":{"ha":611,"x_min":0,"x_max":0,"o":"m 588 49 b 575 138 625 68 617 126 b 544 136 565 140 554 140 b 376 96 501 115 435 96 b 238 211 294 96 256 133 b 222 386 224 268 222 328 b 353 497 267 422 311 458 b 417 571 365 510 410 554 b 361 635 429 607 397 644 b 297 579 333 628 317 599 b 225 515 274 556 249 535 b 258 935 229 656 239 796 b 261 950 260 940 261 944 b 213 999 261 982 238 999 b 163 954 190 999 167 983 b 125 433 143 782 128 607 b 29 350 111 421 40 365 b 19 306 19 338 15 322 b 67 269 26 282 46 269 b 108 292 82 269 97 276 b 126 308 111 294 124 306 b 367 -1 133 151 188 -1 b 588 49 440 -1 522 15 z "},"ł":{"ha":372,"x_min":0,"x_max":0,"o":"m 211 29 b 235 465 224 174 231 319 b 343 614 271 515 307 565 b 308 694 369 647 349 694 b 269 676 294 694 278 688 b 235 631 258 661 246 646 b 224 950 235 738 231 844 b 175 1000 221 979 207 1000 b 126 950 149 1000 125 981 b 138 499 136 800 140 650 b 51 393 110 463 82 426 b 32 375 46 386 38 382 b 65 296 10 343 28 300 b 96 303 76 296 88 297 b 133 338 110 313 122 325 b 114 38 129 238 122 138 b 164 -12 111 10 138 -12 b 211 29 185 -12 208 7 z "},"Œ":{"ha":1189,"x_min":0,"x_max":0,"o":"m 654 181 b 878 -10 688 24 724 -10 b 1143 49 960 -10 1069 14 b 1172 115 1169 60 1185 90 b 1126 146 1164 135 1144 146 b 1101 139 1118 146 1110 144 b 1092 132 1100 138 1093 132 b 872 88 1022 106 947 88 b 779 106 854 88 789 89 b 757 163 769 122 763 143 b 731 463 732 260 728 363 b 939 508 800 479 868 501 b 968 589 976 513 996 563 b 931 606 958 599 944 607 b 735 564 864 600 800 579 b 757 876 740 668 747 772 b 960 904 808 896 907 904 b 1075 892 999 904 1038 901 b 1132 949 1108 883 1140 917 b 1100 985 1128 964 1115 981 b 963 1001 1056 997 1008 1001 b 663 911 901 1001 675 996 b 656 825 661 900 656 836 b 410 989 600 915 519 989 b 68 643 226 989 108 801 b 72 268 38 521 39 388 b 372 -19 110 125 213 -19 b 654 181 497 -19 596 78 z m 156 336 b 194 711 131 460 143 597 b 408 892 233 799 318 892 b 601 711 506 892 572 793 b 583 257 653 568 646 396 b 364 76 544 172 467 76 b 156 336 243 76 175 236 z "},"œ":{"ha":982,"x_min":0,"x_max":0,"o":"m 947 257 b 960 299 950 263 960 292 b 913 354 963 329 940 354 b 867 321 892 354 872 340 b 653 92 840 232 760 92 b 624 97 643 92 632 93 b 563 336 558 129 556 264 b 613 329 578 331 596 329 b 800 425 683 329 754 375 b 799 719 881 513 896 651 b 721 742 776 735 749 742 b 507 535 604 742 543 628 b 301 718 479 629 408 718 b 107 593 218 718 150 660 b 33 353 60 524 38 436 b 81 135 31 279 44 200 b 257 17 117 65 178 17 b 472 174 356 17 429 92 b 654 -6 496 78 544 -6 b 947 257 793 -6 906 136 z m 579 436 b 721 646 593 496 642 646 b 756 628 735 646 747 640 b 763 547 771 606 772 572 b 611 425 743 492 672 425 b 579 436 599 425 588 429 z m 135 276 b 149 453 126 335 129 397 b 301 621 172 525 229 621 b 426 458 378 621 418 521 b 413 281 433 399 431 338 b 260 113 389 210 332 113 b 135 276 181 113 144 213 z "},"Š":{"ha":622,"x_min":0,"x_max":0,"o":"m 354 1081 b 449 1164 393 1096 424 1131 b 508 1258 461 1181 506 1239 b 460 1315 514 1290 488 1315 b 429 1304 450 1315 439 1313 b 388 1244 421 1297 394 1253 b 322 1174 378 1231 338 1182 b 308 1182 317 1171 311 1178 b 281 1225 297 1194 290 1211 b 196 1301 265 1253 233 1301 b 165 1289 185 1301 174 1297 b 161 1219 146 1269 142 1239 b 181 1200 168 1214 175 1207 b 231 1122 200 1176 211 1147 b 319 1075 256 1093 281 1075 b 354 1081 332 1075 343 1076 z m 565 161 b 488 456 593 264 564 376 b 260 653 418 528 331 581 b 210 725 240 674 221 699 b 203 779 204 742 200 761 b 346 906 215 844 278 906 b 425 878 374 906 404 896 b 472 771 453 850 467 810 b 519 729 475 744 497 729 b 558 749 535 729 549 735 b 531 899 583 783 551 861 b 353 1003 493 964 426 1003 b 329 1001 346 1003 338 1003 b 106 757 208 989 103 879 b 164 615 107 707 132 656 b 343 456 215 554 281 506 b 472 288 401 408 453 364 b 468 179 482 253 481 214 b 357 107 450 129 407 107 b 99 247 254 107 168 179 b 68 260 90 256 79 260 b 21 226 47 260 28 247 b 31 179 17 211 19 190 b 351 10 115 94 225 10 b 565 161 449 10 539 64 z "},"š":{"ha":538,"x_min":0,"x_max":0,"o":"m 372 833 b 469 942 393 850 461 917 b 424 1008 483 978 454 1008 b 386 989 410 1008 397 1001 b 257 875 369 968 290 875 b 182 958 235 881 194 940 b 156 985 178 964 161 981 b 133 989 149 988 140 989 b 97 908 93 989 64 942 b 143 847 104 901 136 856 b 257 778 172 813 210 778 b 372 833 303 778 339 804 z m 458 81 b 469 201 481 117 485 160 b 383 318 453 246 418 285 b 260 433 343 358 299 393 b 203 504 238 454 217 478 b 267 615 179 551 214 607 b 289 617 274 617 282 617 b 403 536 338 617 397 589 b 451 494 404 511 428 494 b 482 507 463 494 474 499 b 499 544 492 517 500 531 b 269 714 489 656 379 724 b 100 517 168 706 90 619 b 168 388 104 468 136 424 b 318 247 214 336 269 294 b 372 125 351 214 399 163 b 269 72 346 89 314 72 b 136 146 213 72 167 99 b 126 169 133 151 125 164 b 78 225 131 200 107 225 b 32 193 60 225 36 213 b 142 8 14 126 83 43 b 267 -25 181 -14 224 -25 b 458 81 343 -25 417 11 z "},"Ÿ":{"ha":628,"x_min":0,"x_max":0,"o":"m 275 1146 b 233 1219 294 1178 271 1219 b 190 1142 193 1219 167 1175 b 231 1121 200 1128 215 1121 b 275 1146 249 1121 265 1129 z m 486 1156 b 435 1211 492 1189 464 1211 b 393 1192 419 1211 404 1206 b 414 1115 371 1167 382 1126 b 431 1113 419 1114 425 1113 b 486 1156 456 1113 482 1131 z m 135 42 b 135 56 135 44 135 53 b 161 117 143 76 151 97 b 601 894 219 240 514 790 b 611 901 603 896 610 901 b 578 986 644 936 619 986 b 560 983 572 986 567 986 b 453 849 526 971 472 878 b 297 581 399 760 347 671 b 138 914 244 664 167 815 b 135 931 136 919 133 925 b 86 986 140 963 114 986 b 38 942 64 986 38 965 b 176 593 31 869 142 657 b 243 485 197 556 218 519 b 38 68 210 422 54 138 b 71 3 32 42 44 10 b 85 1 75 1 79 1 b 135 42 110 1 132 17 z "},"Ž":{"ha":654,"x_min":0,"x_max":0,"o":"m 496 1199 b 540 1264 507 1210 539 1247 b 493 1319 543 1299 519 1319 b 447 1290 476 1319 458 1310 b 357 1208 435 1269 381 1218 b 282 1290 346 1217 293 1281 b 249 1303 271 1299 260 1303 b 210 1224 211 1303 179 1260 b 224 1213 214 1219 219 1217 b 321 1119 253 1179 281 1138 b 357 1111 332 1114 344 1111 b 496 1199 411 1111 461 1163 z m 599 38 b 618 115 631 46 642 92 b 572 131 607 126 589 135 b 232 89 463 101 347 89 b 135 93 200 89 167 90 b 619 915 200 193 601 821 b 604 969 622 933 617 956 b 560 993 592 981 576 989 b 335 1017 488 1013 408 1017 b 119 992 263 1017 188 1013 b 140 897 60 974 79 886 b 185 908 156 899 169 906 b 318 919 228 917 274 919 b 511 906 382 919 447 917 b 340 606 461 801 400 704 b 39 125 242 444 143 283 b 22 100 38 122 24 103 b 36 25 7 75 14 42 b 106 0 56 10 81 3 b 218 -10 143 -7 181 -10 b 599 38 344 -10 476 4 z "},"ž":{"ha":535,"x_min":0,"x_max":0,"o":"m 246 803 b 378 914 289 813 350 882 b 383 988 396 935 403 968 b 344 1003 372 997 358 1003 b 308 985 331 1003 318 997 b 239 910 289 957 264 932 b 200 965 224 928 211 946 b 153 999 188 985 179 999 b 106 943 125 999 99 975 b 190 819 110 914 168 840 b 246 803 204 806 226 800 z m 497 65 b 478 149 526 92 515 139 b 440 143 465 153 451 150 b 250 99 386 104 314 99 b 132 117 211 99 168 101 b 164 174 139 138 150 156 b 374 422 228 261 310 333 b 458 654 410 474 482 594 b 233 751 431 725 303 751 b 46 665 182 751 50 726 b 93 613 43 635 67 613 b 110 615 99 613 104 613 b 147 638 115 617 143 636 b 231 654 174 650 203 653 b 351 628 272 654 315 647 b 364 619 356 626 364 624 b 274 451 351 557 314 501 b 69 208 208 369 128 297 b 35 129 54 185 40 157 b 40 67 31 108 31 85 b 253 1 72 17 182 1 b 497 65 322 1 444 15 z "},"ƒ":{"ha":600,"x_min":0,"x_max":0,"o":"m 119 -64 b 264 529 206 82 244 363 b 490 565 304 532 454 547 b 503 640 517 581 524 619 b 457 656 492 651 472 660 b 275 628 397 640 336 631 b 336 840 285 700 294 779 b 426 899 357 869 393 899 b 449 894 435 899 442 897 b 475 860 463 889 472 874 b 479 804 481 842 476 822 b 529 758 483 776 506 758 b 564 774 542 758 554 764 b 576 808 572 782 578 796 b 565 897 574 838 575 868 b 426 996 543 960 493 996 b 226 840 342 996 264 928 b 178 626 197 774 186 699 b 67 624 140 626 103 633 b 28 564 40 617 19 592 b 85 526 35 539 58 519 b 100 531 88 528 97 531 b 167 529 122 531 144 529 b 43 0 151 396 111 115 b -67 -97 24 -36 -24 -97 b -125 -72 -81 -97 -117 -83 b -128 -65 -125 -72 -128 -67 b -168 -40 -137 -49 -153 -40 b -215 -108 -200 -40 -231 -71 b -197 -137 -210 -119 -204 -129 b -67 -194 -165 -169 -112 -194 b 119 -64 15 -194 81 -129 z "},"ˆ":{"ha":417,"x_min":0,"x_max":0,"o":"m 113 754 b 217 885 129 769 203 867 b 297 789 244 853 271 821 b 335 771 307 776 321 771 b 382 808 356 771 376 785 b 376 846 386 821 383 835 b 257 985 361 867 276 967 b 218 1001 246 996 232 1001 b 179 988 206 1001 192 997 b 46 824 157 969 65 846 b 78 742 17 794 36 746 b 113 754 90 742 104 746 z "},"ˇ":{"ha":400,"x_min":0,"x_max":0,"o":"m 268 788 b 363 910 306 825 333 868 b 357 967 374 926 371 953 b 319 982 347 976 333 982 b 283 964 306 982 292 976 b 206 863 258 929 235 893 b 171 900 194 875 183 888 b 128 944 165 906 132 938 b 117 963 124 950 122 957 b 81 978 106 974 93 978 b 36 950 63 978 44 968 b 33 919 32 942 31 931 b 103 832 43 883 76 860 b 157 776 110 824 147 782 b 206 758 171 765 189 758 b 268 788 229 758 253 772 z "},"˜":{"ha":522,"x_min":0,"x_max":0,"o":"m 131 819 b 131 828 131 821 129 826 b 192 872 142 843 174 871 b 288 829 210 872 271 838 b 358 803 310 818 333 808 b 385 799 367 800 376 799 b 469 853 424 799 450 821 b 490 903 474 861 489 894 b 440 960 493 938 467 960 b 400 935 425 960 410 951 b 382 896 393 922 390 908 b 325 919 363 900 343 910 b 189 968 282 940 236 968 b 40 865 136 968 63 915 b 58 783 26 836 29 797 b 82 778 65 781 74 778 b 131 819 106 778 128 793 z "},"ẞ":{"ha":800,"x_min":0,"x_max":0,"o":"m 757 249 b 740 404 765 301 760 356 b 543 579 707 494 635 554 b 671 733 594 622 642 674 b 688 901 697 783 706 847 b 483 1022 663 989 567 1022 b 167 861 371 1022 232 956 b 60 411 85 746 64 549 b 78 42 56 288 61 164 b 131 -22 82 10 93 -22 b 179 35 158 -22 185 1 b 175 49 178 40 175 44 b 171 571 151 222 146 399 b 406 913 192 733 238 861 b 489 925 429 919 460 925 b 600 838 553 925 600 906 b 396 600 600 740 472 639 b 371 589 393 597 375 590 b 304 569 349 583 321 585 b 328 483 272 542 286 490 b 393 494 339 481 382 490 b 435 497 400 497 425 497 b 663 317 551 497 649 439 b 494 75 674 210 599 101 b 458 71 483 72 471 71 b 340 154 394 71 371 103 b 317 181 333 164 328 175 b 293 188 308 185 300 188 b 247 121 261 188 232 154 b 457 -28 288 35 358 -28 b 757 249 604 -28 736 107 z "},"–":{"ha":618,"x_min":0,"x_max":0,"o":"m 92 350 b 264 364 117 356 238 363 b 357 365 294 365 326 365 b 517 358 411 365 464 364 b 561 358 532 357 547 354 b 551 453 608 376 601 447 b 335 463 479 460 407 463 b 53 439 290 463 85 458 b 92 350 0 408 33 333 z "},"—":{"ha":1344,"x_min":0,"x_max":0,"o":"m 294 368 b 733 386 440 378 586 388 b 1097 374 854 386 975 376 b 1261 381 1151 372 1207 375 b 1301 393 1275 382 1290 385 b 1268 479 1336 424 1314 483 b 1151 471 1229 476 1190 471 b 776 483 1104 469 824 482 b 426 474 660 485 543 481 b 150 457 335 468 242 460 b 58 451 135 457 72 457 b 47 367 21 438 15 389 b 76 357 56 360 67 357 b 294 368 103 360 268 365 z "},"‘":{"ha":210,"x_min":0,"x_max":0,"o":"m 106 718 b 146 785 135 726 157 757 b 114 818 140 799 122 806 b 108 858 106 831 106 846 b 167 975 115 901 146 936 b 169 1006 172 986 181 1000 b 158 1008 165 1008 163 1008 b 110 968 140 1008 121 986 b 39 788 71 915 47 851 b 106 718 35 746 65 707 z "},"’":{"ha":210,"x_min":0,"x_max":0,"o":"m 103 758 b 171 938 139 811 163 875 b 118 1008 175 976 150 1008 b 94 1003 110 1008 103 1007 b 64 940 72 992 54 964 b 97 907 69 925 89 919 b 103 867 104 894 106 879 b 43 750 94 824 64 789 b 44 717 36 738 31 722 b 103 758 65 711 90 740 z "},"‚":{"ha":165,"x_min":0,"x_max":0,"o":"m 68 -119 b 136 60 104 -67 128 -4 b 82 131 140 97 115 131 b 60 125 75 131 68 129 b 29 63 38 113 19 85 b 63 28 35 47 54 42 b 68 -12 69 17 71 1 b 8 -128 60 -54 29 -90 b 10 -161 1 -140 -4 -157 b 68 -119 31 -168 56 -137 z "},"“":{"ha":369,"x_min":0,"x_max":0,"o":"m 106 713 b 146 779 135 721 157 751 b 114 813 140 794 122 800 b 108 853 106 825 106 840 b 167 969 115 896 146 931 b 169 1001 172 981 181 994 b 110 963 147 1013 124 983 b 39 782 71 910 47 846 b 106 713 35 740 65 701 z m 263 708 b 304 775 292 718 315 747 b 271 810 297 790 279 796 b 265 850 264 821 263 836 b 324 965 274 892 304 926 b 326 997 331 976 338 990 b 267 958 304 1008 281 979 b 197 778 229 907 204 842 b 263 708 192 736 224 697 z "},"”":{"ha":368,"x_min":0,"x_max":0,"o":"m 104 753 b 172 932 140 806 164 869 b 119 1003 176 971 151 1003 b 96 997 111 1003 104 1001 b 65 935 74 986 56 958 b 99 901 71 921 90 914 b 104 861 106 889 107 874 b 44 744 96 818 65 783 b 46 713 38 732 32 717 b 104 753 67 706 92 736 z m 261 750 b 329 928 299 801 322 865 b 276 999 333 967 308 999 b 253 993 268 999 261 997 b 222 931 231 982 214 954 b 256 897 228 917 247 910 b 261 857 263 886 264 869 b 201 740 253 814 222 779 b 203 708 194 728 189 713 b 261 750 225 701 249 732 z "},"„":{"ha":319,"x_min":0,"x_max":0,"o":"m 67 -122 b 135 57 103 -69 126 -6 b 82 128 139 96 114 128 b 58 122 74 128 67 126 b 28 60 36 111 18 83 b 61 26 33 44 53 39 b 67 -14 68 14 69 -1 b 7 -131 58 -57 28 -92 b 8 -164 0 -143 -6 -160 b 67 -122 29 -169 54 -140 z m 224 -126 b 292 53 261 -74 285 -10 b 239 124 296 92 271 124 b 215 118 231 124 224 122 b 185 56 193 107 176 79 b 218 22 190 42 210 35 b 224 -18 225 10 226 -6 b 164 -135 215 -61 185 -96 b 165 -168 157 -147 151 -162 b 224 -126 188 -174 211 -143 z "},"†":{"ha":461,"x_min":0,"x_max":0,"o":"m 276 33 b 253 435 265 167 251 300 b 258 590 253 486 254 539 b 383 588 300 589 340 588 b 418 669 425 588 449 639 b 390 683 411 676 401 683 b 265 688 375 685 281 688 b 283 876 269 750 276 814 b 264 956 308 901 297 947 b 249 957 258 957 254 957 b 186 885 201 957 193 922 b 168 690 179 821 174 756 b 128 693 154 692 142 692 b 93 708 118 703 106 708 b 40 651 67 708 40 685 b 76 603 40 632 57 608 b 161 594 103 596 132 594 b 156 374 157 521 154 447 b 179 24 158 256 169 140 b 228 -17 181 0 204 -17 b 276 33 254 -17 276 7 z "},"‡":{"ha":504,"x_min":0,"x_max":0,"o":"m 308 56 b 297 268 308 82 297 242 b 410 278 335 271 372 274 b 438 357 446 281 464 332 b 400 374 428 367 413 375 b 294 365 364 371 329 368 b 294 657 293 463 292 560 b 424 681 339 660 382 669 b 453 711 438 683 450 697 b 397 774 463 747 433 782 b 299 754 365 765 332 758 b 310 911 300 774 308 892 b 319 950 311 925 321 936 b 269 997 317 979 294 997 b 214 926 233 997 217 957 b 201 750 211 904 203 772 b 94 747 183 750 111 753 b 113 651 43 729 57 651 b 129 654 114 651 128 654 b 197 653 151 653 175 653 b 197 361 194 556 196 458 b 106 375 167 363 136 367 b 49 317 74 383 40 350 b 81 281 53 301 65 285 b 200 264 119 271 160 265 b 211 69 200 240 210 93 b 215 36 211 58 210 46 b 261 6 225 15 243 6 b 308 56 285 6 310 24 z "},"•":{"ha":274,"x_min":0,"x_max":0,"o":"m 228 342 b 219 501 242 378 238 468 b 142 538 200 532 175 538 b 81 524 121 538 99 533 b 50 428 44 503 19 457 b 150 289 44 357 88 289 b 228 342 185 289 215 308 z "},"…":{"ha":611,"x_min":0,"x_max":0,"o":"m 96 31 b 108 38 100 32 104 36 b 93 128 149 61 139 121 b 58 122 82 131 69 128 b 96 31 -3 97 31 14 z m 579 39 b 532 113 597 76 569 113 b 514 110 526 113 521 113 b 500 26 479 96 471 50 b 536 14 511 18 524 14 b 579 39 554 14 571 22 z m 300 97 b 274 99 292 100 282 101 b 283 1 217 83 225 7 b 289 1 285 1 288 1 b 300 97 347 1 360 81 z "},"‰":{"ha":1240,"x_min":0,"x_max":0,"o":"m 239 531 b 381 847 347 569 396 733 b 240 1001 369 921 324 1001 b 196 993 225 1001 211 999 b 54 676 88 954 38 790 b 194 522 65 603 113 522 b 239 531 210 522 224 525 z m 224 -1 b 407 382 269 133 338 258 b 722 921 510 563 622 738 b 679 994 742 954 717 994 b 638 969 663 994 646 983 b 322 429 538 786 425 610 b 133 32 250 301 181 171 b 178 -33 121 -1 146 -33 b 224 -1 199 -33 217 -21 z m 151 690 b 185 860 142 747 154 810 b 233 904 196 878 213 897 b 276 863 254 910 269 883 b 281 744 290 826 289 783 b 193 619 274 708 240 619 b 151 690 169 619 154 672 z m 1188 206 b 1182 379 1201 261 1201 325 b 1056 481 1163 438 1117 476 b 899 382 989 481 935 435 b 844 215 867 333 850 274 b 867 83 840 171 847 124 b 990 1 890 33 935 1 b 1188 206 1099 1 1161 115 z m 764 188 b 760 361 779 243 779 307 b 632 463 738 419 694 458 b 421 197 503 463 432 307 b 443 65 418 153 425 106 b 567 -17 467 15 513 -17 b 764 188 672 -17 742 97 z m 943 160 b 992 343 932 222 953 293 b 1049 383 1006 361 1026 381 b 1100 288 1092 383 1100 319 b 999 99 1099 222 1063 118 b 990 97 996 97 993 97 b 943 160 964 97 949 131 z m 521 142 b 568 325 510 204 529 275 b 626 365 583 343 603 363 b 678 268 668 365 678 299 b 575 81 676 207 642 100 b 565 79 572 79 568 79 b 521 142 540 79 526 113 z "},"‹":{"ha":378,"x_min":0,"x_max":0,"o":"m 335 164 b 318 190 332 174 326 183 b 140 358 283 215 161 321 l 139 361 b 279 511 149 382 265 511 b 314 540 293 514 308 526 b 263 608 332 578 300 608 b 232 601 251 608 242 606 b 161 535 218 594 172 546 b 104 476 142 517 124 496 b 43 379 79 447 53 415 b 60 304 38 354 46 325 b 193 165 96 251 144 207 b 281 104 208 151 260 107 b 335 164 315 97 344 131 z "},"›":{"ha":378,"x_min":0,"x_max":0,"o":"m 321 296 b 336 349 331 313 336 331 b 321 404 338 368 331 388 b 154 585 300 440 189 560 b 113 597 143 593 128 597 b 83 589 103 597 92 594 b 104 499 44 563 57 503 b 239 350 129 476 225 381 b 58 178 211 299 104 210 b 43 153 51 172 46 163 b 90 92 35 121 61 92 b 321 296 135 92 288 243 z "},"⁄":{"ha":667,"x_min":0,"x_max":0,"o":"m 74 -18 b 203 182 131 38 165 113 b 438 588 278 319 358 454 b 643 917 465 636 607 875 b 606 999 674 953 643 999 b 575 986 596 999 585 994 b 185 347 522 942 232 431 b 46 101 167 315 67 132 b 4 50 33 83 19 67 b 26 -28 -18 25 -6 -19 b 40 -29 31 -29 36 -29 b 74 -18 53 -29 65 -26 z "},"€":{"ha":768,"x_min":0,"x_max":0,"o":"m 715 226 b 669 293 726 260 701 293 b 626 267 653 293 633 282 b 610 228 621 254 615 240 b 454 85 585 167 529 85 b 272 340 351 85 289 258 b 465 361 336 346 401 353 b 499 381 478 363 490 371 b 449 457 524 417 492 463 b 258 436 385 449 322 442 b 257 519 257 464 257 492 b 406 540 307 522 356 533 b 460 543 424 543 442 547 b 481 639 521 532 539 618 b 267 618 446 650 304 621 b 463 904 283 710 346 904 b 604 782 526 904 578 833 b 646 757 613 765 629 757 b 692 790 667 757 686 768 b 692 824 694 801 696 814 b 461 1001 647 915 569 1001 b 168 614 276 1001 192 765 b 65 604 150 614 82 614 b 83 515 26 582 38 518 b 160 517 93 514 150 517 b 163 428 160 488 160 457 b 117 426 154 428 124 424 b 76 424 104 432 89 429 b 88 329 32 403 39 340 b 104 328 90 329 97 328 b 174 332 128 328 164 331 b 457 -12 201 193 289 -12 b 715 226 590 -12 672 115 z "},"™":{"ha":803,"x_min":0,"x_max":0,"o":"m 225 647 b 217 918 224 686 225 879 b 257 921 224 918 251 922 b 286 914 261 921 282 915 b 315 918 296 913 307 914 b 310 1008 356 936 353 996 b 253 1018 292 1014 272 1019 b 108 1003 235 1018 126 1003 b 101 1007 107 1003 103 1006 b 85 1010 96 1010 90 1010 b 54 924 43 1010 17 954 b 121 907 71 908 97 906 b 128 649 128 869 126 685 b 176 597 128 614 153 597 b 225 647 201 597 225 614 z m 367 582 b 429 793 374 608 422 767 b 497 690 443 760 464 707 b 531 682 507 685 519 682 b 593 719 557 682 579 697 b 636 801 611 744 624 772 b 657 629 644 744 651 688 b 664 592 657 617 658 603 b 706 568 674 575 689 568 b 754 618 731 568 757 588 b 713 907 747 715 739 813 b 647 972 704 939 685 972 b 599 949 629 972 610 964 b 531 803 568 906 554 851 b 482 919 514 842 503 883 b 426 957 471 940 449 957 b 407 953 419 957 413 956 b 372 922 393 947 381 936 b 286 651 351 886 300 692 b 274 604 285 644 274 611 b 321 549 271 574 293 549 b 367 582 340 549 363 563 z "},"−":{"ha":503,"x_min":0,"x_max":0,"o":"m 111 358 b 403 364 150 358 364 367 b 431 358 413 364 421 358 b 429 458 496 358 494 453 b 406 461 421 460 414 461 b 90 456 364 465 132 456 b 85 456 89 456 86 456 b 57 361 25 467 0 382 b 111 358 74 356 93 357 z "}}}
